%FSLAX45Y45*%
G04 Gerber Fmt 4.5, Leading zero omitted, Abs format (unit mm)*
G04 Created by KiCad (PCBNEW 6.0.0-d3dd2cf0fa~116~ubuntu21.10.1) date 2022-02-03 20:37:09*
%MOMM*%
%LPD*%
G01*
G04 APERTURE LIST*
%TA.AperFunction,Profile*%
%ADD10C,0.200000*%
%TD*%
%ADD11C,0.200000*%
G04 APERTURE END LIST*
D10*
X9300000Y-11550000D02*
X8300000Y-11550000D01*
X7500000Y-8500000D02*
X13500000Y-8500000D01*
X13500000Y-8500000D02*
X13500000Y-12400000D01*
X13500000Y-12400000D02*
X7500000Y-12400000D01*
X7500000Y-12400000D02*
X7500000Y-8500000D01*
X8300000Y-11550000D02*
X8300000Y-10550000D01*
X9700000Y-10850000D02*
X9700000Y-10150000D01*
X9300000Y-10550000D02*
X9300000Y-10850000D01*
X9700000Y-11950000D02*
X9700000Y-11250000D01*
X9700000Y-10150000D02*
X7900000Y-10150000D01*
X8300000Y-10550000D02*
X9300000Y-10550000D01*
X9300000Y-11250000D02*
X9300000Y-11550000D01*
X7900000Y-10150000D02*
X7900000Y-11950000D01*
X7900000Y-11950000D02*
X9700000Y-11950000D01*
X9700000Y-11250000D02*
X9300000Y-11250000D01*
X9300000Y-10850000D02*
X9700000Y-10850000D01*
D11*
X7747619Y-12720476D02*
X7747619Y-12520476D01*
X7795238Y-12520476D01*
X7823809Y-12530000D01*
X7842857Y-12549048D01*
X7852381Y-12568095D01*
X7861905Y-12606190D01*
X7861905Y-12634762D01*
X7852381Y-12672857D01*
X7842857Y-12691905D01*
X7823809Y-12710952D01*
X7795238Y-12720476D01*
X7747619Y-12720476D01*
X7947619Y-12720476D02*
X7947619Y-12587143D01*
X7947619Y-12625238D02*
X7957143Y-12606190D01*
X7966667Y-12596667D01*
X7985714Y-12587143D01*
X8004762Y-12587143D01*
X8071428Y-12720476D02*
X8071428Y-12587143D01*
X8071428Y-12520476D02*
X8061905Y-12530000D01*
X8071428Y-12539524D01*
X8080952Y-12530000D01*
X8071428Y-12520476D01*
X8071428Y-12539524D01*
X8195238Y-12720476D02*
X8176190Y-12710952D01*
X8166667Y-12691905D01*
X8166667Y-12520476D01*
X8300000Y-12720476D02*
X8280952Y-12710952D01*
X8271428Y-12691905D01*
X8271428Y-12520476D01*
X8528571Y-12720476D02*
X8528571Y-12520476D01*
X8595238Y-12663333D01*
X8661905Y-12520476D01*
X8661905Y-12720476D01*
X8842857Y-12720476D02*
X8842857Y-12615714D01*
X8833333Y-12596667D01*
X8814286Y-12587143D01*
X8776190Y-12587143D01*
X8757143Y-12596667D01*
X8842857Y-12710952D02*
X8823810Y-12720476D01*
X8776190Y-12720476D01*
X8757143Y-12710952D01*
X8747619Y-12691905D01*
X8747619Y-12672857D01*
X8757143Y-12653809D01*
X8776190Y-12644286D01*
X8823810Y-12644286D01*
X8842857Y-12634762D01*
X8938095Y-12587143D02*
X8938095Y-12787143D01*
X8938095Y-12596667D02*
X8957143Y-12587143D01*
X8995238Y-12587143D01*
X9014286Y-12596667D01*
X9023810Y-12606190D01*
X9033333Y-12625238D01*
X9033333Y-12682381D01*
X9023810Y-12701428D01*
X9014286Y-12710952D01*
X8995238Y-12720476D01*
X8957143Y-12720476D01*
X8938095Y-12710952D01*
X9119048Y-12701428D02*
X9128571Y-12710952D01*
X9119048Y-12720476D01*
X9109524Y-12710952D01*
X9119048Y-12701428D01*
X9119048Y-12720476D01*
X9119048Y-12596667D02*
X9128571Y-12606190D01*
X9119048Y-12615714D01*
X9109524Y-12606190D01*
X9119048Y-12596667D01*
X9119048Y-12615714D01*
M02*
