%FSLAX45Y45*%
G04 Gerber Fmt 4.5, Leading zero omitted, Abs format (unit mm)*
G04 Created by KiCad (PCBNEW 6.0.0-d3dd2cf0fa~116~ubuntu21.10.1) date 2022-02-03 21:45:13*
%MOMM*%
%LPD*%
G01*
G04 APERTURE LIST*
%TA.AperFunction,Profile*%
%ADD10C,0.200000*%
%TD*%
%ADD11C,0.200000*%
%ADD12C,0.040000*%
%ADD13C,0.070000*%
%ADD14C,0.080000*%
%ADD15C,0.160000*%
G04 APERTURE END LIST*
D10*
X9300000Y-11550000D02*
X8300000Y-11550000D01*
X7500000Y-8500000D02*
X13500000Y-8500000D01*
X13500000Y-8500000D02*
X13500000Y-12400000D01*
X13500000Y-12400000D02*
X7500000Y-12400000D01*
X7500000Y-12400000D02*
X7500000Y-8500000D01*
X8300000Y-11550000D02*
X8300000Y-10550000D01*
X9700000Y-10850000D02*
X9700000Y-10150000D01*
X9300000Y-10550000D02*
X9300000Y-10850000D01*
X9700000Y-11950000D02*
X9700000Y-11250000D01*
X9700000Y-10150000D02*
X7900000Y-10150000D01*
X8300000Y-10550000D02*
X9300000Y-10550000D01*
X9300000Y-11250000D02*
X9300000Y-11550000D01*
X7900000Y-10150000D02*
X7900000Y-11950000D01*
X7900000Y-11950000D02*
X9700000Y-11950000D01*
X9700000Y-11250000D02*
X9300000Y-11250000D01*
X9300000Y-10850000D02*
X9700000Y-10850000D01*
D11*
D12*
X8480000Y-10980000D02*
X8520000Y-11020000D01*
X8520000Y-10980000D02*
X8480000Y-11020000D01*
X8830000Y-9030000D02*
X8870000Y-9070000D01*
X8870000Y-9030000D02*
X8830000Y-9070000D01*
X9880000Y-10180000D02*
X9920000Y-10220000D01*
X9920000Y-10180000D02*
X9880000Y-10220000D01*
X10230000Y-10930000D02*
X10270000Y-10970000D01*
X10270000Y-10930000D02*
X10230000Y-10970000D01*
X10580000Y-11130000D02*
X10620000Y-11170000D01*
X10620000Y-11130000D02*
X10580000Y-11170000D01*
X10680000Y-11780000D02*
X10720000Y-11820000D01*
X10720000Y-11780000D02*
X10680000Y-11820000D01*
D13*
X8708000Y-11050000D02*
G75*
G03*
X8708000Y-11050000I-35000J0D01*
G01*
X8835000Y-10923000D02*
G75*
G03*
X8835000Y-10923000I-35000J0D01*
G01*
X8835000Y-11177000D02*
G75*
G03*
X8835000Y-11177000I-35000J0D01*
G01*
X8962000Y-11050000D02*
G75*
G03*
X8962000Y-11050000I-35000J0D01*
G01*
D14*
X8000000Y-9410000D02*
X8000000Y-9490000D01*
X7960000Y-9450000D02*
X8040000Y-9450000D01*
D11*
X7970000Y-9365000D02*
X7970000Y-9535000D01*
X8030000Y-9365000D02*
X8030000Y-9535000D01*
X7970000Y-9535000D02*
G75*
G03*
X8030000Y-9535000I30000J0D01*
G01*
X8030000Y-9365000D02*
G75*
G03*
X7970000Y-9365000I-30000J0D01*
G01*
D14*
X8310000Y-9880000D02*
X8310000Y-9960000D01*
X8270000Y-9920000D02*
X8350000Y-9920000D01*
D11*
X8225000Y-9950000D02*
X8395000Y-9950000D01*
X8225000Y-9890000D02*
X8395000Y-9890000D01*
X8395000Y-9950000D02*
G75*
G03*
X8395000Y-9890000I0J30000D01*
G01*
X8225000Y-9890000D02*
G75*
G03*
X8225000Y-9950000I0J-30000D01*
G01*
D14*
X8590000Y-9410000D02*
X8590000Y-9490000D01*
X8550000Y-9450000D02*
X8630000Y-9450000D01*
D11*
X8560000Y-9315000D02*
X8560000Y-9585000D01*
X8620000Y-9315000D02*
X8620000Y-9585000D01*
X8560000Y-9585000D02*
G75*
G03*
X8620000Y-9585000I30000J0D01*
G01*
X8620000Y-9315000D02*
G75*
G03*
X8560000Y-9315000I-30000J0D01*
G01*
D15*
X11152569Y-9402569D02*
X11152569Y-9289431D01*
X11039431Y-9289431D01*
X11039431Y-9402569D01*
X11152569Y-9402569D01*
X11152569Y-9910569D02*
X11152569Y-9797431D01*
X11039431Y-9797431D01*
X11039431Y-9910569D01*
X11152569Y-9910569D01*
X11152569Y-11102569D02*
X11152569Y-10989431D01*
X11039431Y-10989431D01*
X11039431Y-11102569D01*
X11152569Y-11102569D01*
X11152569Y-11610569D02*
X11152569Y-11497431D01*
X11039431Y-11497431D01*
X11039431Y-11610569D01*
X11152569Y-11610569D01*
X11660569Y-9402569D02*
X11660569Y-9289431D01*
X11547431Y-9289431D01*
X11547431Y-9402569D01*
X11660569Y-9402569D01*
X11660569Y-9910569D02*
X11660569Y-9797431D01*
X11547431Y-9797431D01*
X11547431Y-9910569D01*
X11660569Y-9910569D01*
X11660569Y-11102569D02*
X11660569Y-10989431D01*
X11547431Y-10989431D01*
X11547431Y-11102569D01*
X11660569Y-11102569D01*
X11660569Y-11610569D02*
X11660569Y-11497431D01*
X11547431Y-11497431D01*
X11547431Y-11610569D01*
X11660569Y-11610569D01*
D11*
X7747619Y-12720476D02*
X7747619Y-12520476D01*
X7795238Y-12520476D01*
X7823809Y-12530000D01*
X7842857Y-12549048D01*
X7852381Y-12568095D01*
X7861905Y-12606190D01*
X7861905Y-12634762D01*
X7852381Y-12672857D01*
X7842857Y-12691905D01*
X7823809Y-12710952D01*
X7795238Y-12720476D01*
X7747619Y-12720476D01*
X7947619Y-12720476D02*
X7947619Y-12587143D01*
X7947619Y-12625238D02*
X7957143Y-12606190D01*
X7966667Y-12596667D01*
X7985714Y-12587143D01*
X8004762Y-12587143D01*
X8071428Y-12720476D02*
X8071428Y-12587143D01*
X8071428Y-12520476D02*
X8061905Y-12530000D01*
X8071428Y-12539524D01*
X8080952Y-12530000D01*
X8071428Y-12520476D01*
X8071428Y-12539524D01*
X8195238Y-12720476D02*
X8176190Y-12710952D01*
X8166667Y-12691905D01*
X8166667Y-12520476D01*
X8300000Y-12720476D02*
X8280952Y-12710952D01*
X8271428Y-12691905D01*
X8271428Y-12520476D01*
X8528571Y-12720476D02*
X8528571Y-12520476D01*
X8595238Y-12663333D01*
X8661905Y-12520476D01*
X8661905Y-12720476D01*
X8842857Y-12720476D02*
X8842857Y-12615714D01*
X8833333Y-12596667D01*
X8814286Y-12587143D01*
X8776190Y-12587143D01*
X8757143Y-12596667D01*
X8842857Y-12710952D02*
X8823810Y-12720476D01*
X8776190Y-12720476D01*
X8757143Y-12710952D01*
X8747619Y-12691905D01*
X8747619Y-12672857D01*
X8757143Y-12653809D01*
X8776190Y-12644286D01*
X8823810Y-12644286D01*
X8842857Y-12634762D01*
X8938095Y-12587143D02*
X8938095Y-12787143D01*
X8938095Y-12596667D02*
X8957143Y-12587143D01*
X8995238Y-12587143D01*
X9014286Y-12596667D01*
X9023810Y-12606190D01*
X9033333Y-12625238D01*
X9033333Y-12682381D01*
X9023810Y-12701428D01*
X9014286Y-12710952D01*
X8995238Y-12720476D01*
X8957143Y-12720476D01*
X8938095Y-12710952D01*
X9119048Y-12701428D02*
X9128571Y-12710952D01*
X9119048Y-12720476D01*
X9109524Y-12710952D01*
X9119048Y-12701428D01*
X9119048Y-12720476D01*
X9119048Y-12596667D02*
X9128571Y-12606190D01*
X9119048Y-12615714D01*
X9109524Y-12606190D01*
X9119048Y-12596667D01*
X9119048Y-12615714D01*
D12*
X7450000Y-13030000D02*
X7490000Y-13070000D01*
X7490000Y-13030000D02*
X7450000Y-13070000D01*
D11*
X7785714Y-12940476D02*
X7804762Y-12940476D01*
X7823809Y-12950000D01*
X7833333Y-12959524D01*
X7842857Y-12978571D01*
X7852381Y-13016667D01*
X7852381Y-13064286D01*
X7842857Y-13102381D01*
X7833333Y-13121428D01*
X7823809Y-13130952D01*
X7804762Y-13140476D01*
X7785714Y-13140476D01*
X7766667Y-13130952D01*
X7757143Y-13121428D01*
X7747619Y-13102381D01*
X7738095Y-13064286D01*
X7738095Y-13016667D01*
X7747619Y-12978571D01*
X7757143Y-12959524D01*
X7766667Y-12950000D01*
X7785714Y-12940476D01*
X7938095Y-13121428D02*
X7947619Y-13130952D01*
X7938095Y-13140476D01*
X7928571Y-13130952D01*
X7938095Y-13121428D01*
X7938095Y-13140476D01*
X8119048Y-13007143D02*
X8119048Y-13140476D01*
X8071428Y-12930952D02*
X8023809Y-13073809D01*
X8147619Y-13073809D01*
X8261905Y-12940476D02*
X8280952Y-12940476D01*
X8300000Y-12950000D01*
X8309524Y-12959524D01*
X8319048Y-12978571D01*
X8328571Y-13016667D01*
X8328571Y-13064286D01*
X8319048Y-13102381D01*
X8309524Y-13121428D01*
X8300000Y-13130952D01*
X8280952Y-13140476D01*
X8261905Y-13140476D01*
X8242857Y-13130952D01*
X8233333Y-13121428D01*
X8223809Y-13102381D01*
X8214286Y-13064286D01*
X8214286Y-13016667D01*
X8223809Y-12978571D01*
X8233333Y-12959524D01*
X8242857Y-12950000D01*
X8261905Y-12940476D01*
X8452381Y-12940476D02*
X8471429Y-12940476D01*
X8490476Y-12950000D01*
X8500000Y-12959524D01*
X8509524Y-12978571D01*
X8519048Y-13016667D01*
X8519048Y-13064286D01*
X8509524Y-13102381D01*
X8500000Y-13121428D01*
X8490476Y-13130952D01*
X8471429Y-13140476D01*
X8452381Y-13140476D01*
X8433333Y-13130952D01*
X8423810Y-13121428D01*
X8414286Y-13102381D01*
X8404762Y-13064286D01*
X8404762Y-13016667D01*
X8414286Y-12978571D01*
X8423810Y-12959524D01*
X8433333Y-12950000D01*
X8452381Y-12940476D01*
X8604762Y-13140476D02*
X8604762Y-13007143D01*
X8604762Y-13026190D02*
X8614286Y-13016667D01*
X8633333Y-13007143D01*
X8661905Y-13007143D01*
X8680952Y-13016667D01*
X8690476Y-13035714D01*
X8690476Y-13140476D01*
X8690476Y-13035714D02*
X8700000Y-13016667D01*
X8719048Y-13007143D01*
X8747619Y-13007143D01*
X8766667Y-13016667D01*
X8776190Y-13035714D01*
X8776190Y-13140476D01*
X8871429Y-13140476D02*
X8871429Y-13007143D01*
X8871429Y-13026190D02*
X8880952Y-13016667D01*
X8900000Y-13007143D01*
X8928571Y-13007143D01*
X8947619Y-13016667D01*
X8957143Y-13035714D01*
X8957143Y-13140476D01*
X8957143Y-13035714D02*
X8966667Y-13016667D01*
X8985714Y-13007143D01*
X9014286Y-13007143D01*
X9033333Y-13016667D01*
X9042857Y-13035714D01*
X9042857Y-13140476D01*
X9433333Y-12930952D02*
X9261905Y-13188095D01*
X9690476Y-12940476D02*
X9709524Y-12940476D01*
X9728571Y-12950000D01*
X9738095Y-12959524D01*
X9747619Y-12978571D01*
X9757143Y-13016667D01*
X9757143Y-13064286D01*
X9747619Y-13102381D01*
X9738095Y-13121428D01*
X9728571Y-13130952D01*
X9709524Y-13140476D01*
X9690476Y-13140476D01*
X9671429Y-13130952D01*
X9661905Y-13121428D01*
X9652381Y-13102381D01*
X9642857Y-13064286D01*
X9642857Y-13016667D01*
X9652381Y-12978571D01*
X9661905Y-12959524D01*
X9671429Y-12950000D01*
X9690476Y-12940476D01*
X9842857Y-13121428D02*
X9852381Y-13130952D01*
X9842857Y-13140476D01*
X9833333Y-13130952D01*
X9842857Y-13121428D01*
X9842857Y-13140476D01*
X9976190Y-12940476D02*
X9995238Y-12940476D01*
X10014286Y-12950000D01*
X10023810Y-12959524D01*
X10033333Y-12978571D01*
X10042857Y-13016667D01*
X10042857Y-13064286D01*
X10033333Y-13102381D01*
X10023810Y-13121428D01*
X10014286Y-13130952D01*
X9995238Y-13140476D01*
X9976190Y-13140476D01*
X9957143Y-13130952D01*
X9947619Y-13121428D01*
X9938095Y-13102381D01*
X9928571Y-13064286D01*
X9928571Y-13016667D01*
X9938095Y-12978571D01*
X9947619Y-12959524D01*
X9957143Y-12950000D01*
X9976190Y-12940476D01*
X10233333Y-13140476D02*
X10119048Y-13140476D01*
X10176190Y-13140476D02*
X10176190Y-12940476D01*
X10157143Y-12969048D01*
X10138095Y-12988095D01*
X10119048Y-12997619D01*
X10414286Y-12940476D02*
X10319048Y-12940476D01*
X10309524Y-13035714D01*
X10319048Y-13026190D01*
X10338095Y-13016667D01*
X10385714Y-13016667D01*
X10404762Y-13026190D01*
X10414286Y-13035714D01*
X10423810Y-13054762D01*
X10423810Y-13102381D01*
X10414286Y-13121428D01*
X10404762Y-13130952D01*
X10385714Y-13140476D01*
X10338095Y-13140476D01*
X10319048Y-13130952D01*
X10309524Y-13121428D01*
X10490476Y-12940476D02*
X10623810Y-12940476D01*
X10538095Y-13140476D01*
X10690476Y-12940476D02*
X10690476Y-12978571D01*
X10766667Y-12940476D02*
X10766667Y-12978571D01*
X11061905Y-13216667D02*
X11052381Y-13207143D01*
X11033333Y-13178571D01*
X11023810Y-13159524D01*
X11014286Y-13130952D01*
X11004762Y-13083333D01*
X11004762Y-13045238D01*
X11014286Y-12997619D01*
X11023810Y-12969048D01*
X11033333Y-12950000D01*
X11052381Y-12921428D01*
X11061905Y-12911905D01*
X11223809Y-12940476D02*
X11185714Y-12940476D01*
X11166667Y-12950000D01*
X11157143Y-12959524D01*
X11138095Y-12988095D01*
X11128571Y-13026190D01*
X11128571Y-13102381D01*
X11138095Y-13121428D01*
X11147619Y-13130952D01*
X11166667Y-13140476D01*
X11204762Y-13140476D01*
X11223809Y-13130952D01*
X11233333Y-13121428D01*
X11242857Y-13102381D01*
X11242857Y-13054762D01*
X11233333Y-13035714D01*
X11223809Y-13026190D01*
X11204762Y-13016667D01*
X11166667Y-13016667D01*
X11147619Y-13026190D01*
X11138095Y-13035714D01*
X11128571Y-13054762D01*
X11480952Y-13140476D02*
X11480952Y-12940476D01*
X11566667Y-13140476D02*
X11566667Y-13035714D01*
X11557143Y-13016667D01*
X11538095Y-13007143D01*
X11509524Y-13007143D01*
X11490476Y-13016667D01*
X11480952Y-13026190D01*
X11690476Y-13140476D02*
X11671428Y-13130952D01*
X11661905Y-13121428D01*
X11652381Y-13102381D01*
X11652381Y-13045238D01*
X11661905Y-13026190D01*
X11671428Y-13016667D01*
X11690476Y-13007143D01*
X11719048Y-13007143D01*
X11738095Y-13016667D01*
X11747619Y-13026190D01*
X11757143Y-13045238D01*
X11757143Y-13102381D01*
X11747619Y-13121428D01*
X11738095Y-13130952D01*
X11719048Y-13140476D01*
X11690476Y-13140476D01*
X11871428Y-13140476D02*
X11852381Y-13130952D01*
X11842857Y-13111905D01*
X11842857Y-12940476D01*
X12023809Y-13130952D02*
X12004762Y-13140476D01*
X11966667Y-13140476D01*
X11947619Y-13130952D01*
X11938095Y-13111905D01*
X11938095Y-13035714D01*
X11947619Y-13016667D01*
X11966667Y-13007143D01*
X12004762Y-13007143D01*
X12023809Y-13016667D01*
X12033333Y-13035714D01*
X12033333Y-13054762D01*
X11938095Y-13073809D01*
X12109524Y-13130952D02*
X12128571Y-13140476D01*
X12166667Y-13140476D01*
X12185714Y-13130952D01*
X12195238Y-13111905D01*
X12195238Y-13102381D01*
X12185714Y-13083333D01*
X12166667Y-13073809D01*
X12138095Y-13073809D01*
X12119048Y-13064286D01*
X12109524Y-13045238D01*
X12109524Y-13035714D01*
X12119048Y-13016667D01*
X12138095Y-13007143D01*
X12166667Y-13007143D01*
X12185714Y-13016667D01*
X12261905Y-13216667D02*
X12271428Y-13207143D01*
X12290476Y-13178571D01*
X12300000Y-13159524D01*
X12309524Y-13130952D01*
X12319048Y-13083333D01*
X12319048Y-13045238D01*
X12309524Y-12997619D01*
X12300000Y-12969048D01*
X12290476Y-12950000D01*
X12271428Y-12921428D01*
X12261905Y-12911905D01*
D13*
X7490000Y-13314000D02*
G75*
G03*
X7490000Y-13314000I-35000J0D01*
G01*
D11*
X7785714Y-13204476D02*
X7804762Y-13204476D01*
X7823809Y-13214000D01*
X7833333Y-13223524D01*
X7842857Y-13242571D01*
X7852381Y-13280667D01*
X7852381Y-13328286D01*
X7842857Y-13366381D01*
X7833333Y-13385428D01*
X7823809Y-13394952D01*
X7804762Y-13404476D01*
X7785714Y-13404476D01*
X7766667Y-13394952D01*
X7757143Y-13385428D01*
X7747619Y-13366381D01*
X7738095Y-13328286D01*
X7738095Y-13280667D01*
X7747619Y-13242571D01*
X7757143Y-13223524D01*
X7766667Y-13214000D01*
X7785714Y-13204476D01*
X7938095Y-13385428D02*
X7947619Y-13394952D01*
X7938095Y-13404476D01*
X7928571Y-13394952D01*
X7938095Y-13385428D01*
X7938095Y-13404476D01*
X8014286Y-13204476D02*
X8147619Y-13204476D01*
X8061905Y-13404476D01*
X8261905Y-13204476D02*
X8280952Y-13204476D01*
X8300000Y-13214000D01*
X8309524Y-13223524D01*
X8319048Y-13242571D01*
X8328571Y-13280667D01*
X8328571Y-13328286D01*
X8319048Y-13366381D01*
X8309524Y-13385428D01*
X8300000Y-13394952D01*
X8280952Y-13404476D01*
X8261905Y-13404476D01*
X8242857Y-13394952D01*
X8233333Y-13385428D01*
X8223809Y-13366381D01*
X8214286Y-13328286D01*
X8214286Y-13280667D01*
X8223809Y-13242571D01*
X8233333Y-13223524D01*
X8242857Y-13214000D01*
X8261905Y-13204476D01*
X8452381Y-13204476D02*
X8471429Y-13204476D01*
X8490476Y-13214000D01*
X8500000Y-13223524D01*
X8509524Y-13242571D01*
X8519048Y-13280667D01*
X8519048Y-13328286D01*
X8509524Y-13366381D01*
X8500000Y-13385428D01*
X8490476Y-13394952D01*
X8471429Y-13404476D01*
X8452381Y-13404476D01*
X8433333Y-13394952D01*
X8423810Y-13385428D01*
X8414286Y-13366381D01*
X8404762Y-13328286D01*
X8404762Y-13280667D01*
X8414286Y-13242571D01*
X8423810Y-13223524D01*
X8433333Y-13214000D01*
X8452381Y-13204476D01*
X8604762Y-13404476D02*
X8604762Y-13271143D01*
X8604762Y-13290190D02*
X8614286Y-13280667D01*
X8633333Y-13271143D01*
X8661905Y-13271143D01*
X8680952Y-13280667D01*
X8690476Y-13299714D01*
X8690476Y-13404476D01*
X8690476Y-13299714D02*
X8700000Y-13280667D01*
X8719048Y-13271143D01*
X8747619Y-13271143D01*
X8766667Y-13280667D01*
X8776190Y-13299714D01*
X8776190Y-13404476D01*
X8871429Y-13404476D02*
X8871429Y-13271143D01*
X8871429Y-13290190D02*
X8880952Y-13280667D01*
X8900000Y-13271143D01*
X8928571Y-13271143D01*
X8947619Y-13280667D01*
X8957143Y-13299714D01*
X8957143Y-13404476D01*
X8957143Y-13299714D02*
X8966667Y-13280667D01*
X8985714Y-13271143D01*
X9014286Y-13271143D01*
X9033333Y-13280667D01*
X9042857Y-13299714D01*
X9042857Y-13404476D01*
X9433333Y-13194952D02*
X9261905Y-13452095D01*
X9690476Y-13204476D02*
X9709524Y-13204476D01*
X9728571Y-13214000D01*
X9738095Y-13223524D01*
X9747619Y-13242571D01*
X9757143Y-13280667D01*
X9757143Y-13328286D01*
X9747619Y-13366381D01*
X9738095Y-13385428D01*
X9728571Y-13394952D01*
X9709524Y-13404476D01*
X9690476Y-13404476D01*
X9671429Y-13394952D01*
X9661905Y-13385428D01*
X9652381Y-13366381D01*
X9642857Y-13328286D01*
X9642857Y-13280667D01*
X9652381Y-13242571D01*
X9661905Y-13223524D01*
X9671429Y-13214000D01*
X9690476Y-13204476D01*
X9842857Y-13385428D02*
X9852381Y-13394952D01*
X9842857Y-13404476D01*
X9833333Y-13394952D01*
X9842857Y-13385428D01*
X9842857Y-13404476D01*
X9976190Y-13204476D02*
X9995238Y-13204476D01*
X10014286Y-13214000D01*
X10023810Y-13223524D01*
X10033333Y-13242571D01*
X10042857Y-13280667D01*
X10042857Y-13328286D01*
X10033333Y-13366381D01*
X10023810Y-13385428D01*
X10014286Y-13394952D01*
X9995238Y-13404476D01*
X9976190Y-13404476D01*
X9957143Y-13394952D01*
X9947619Y-13385428D01*
X9938095Y-13366381D01*
X9928571Y-13328286D01*
X9928571Y-13280667D01*
X9938095Y-13242571D01*
X9947619Y-13223524D01*
X9957143Y-13214000D01*
X9976190Y-13204476D01*
X10119048Y-13223524D02*
X10128571Y-13214000D01*
X10147619Y-13204476D01*
X10195238Y-13204476D01*
X10214286Y-13214000D01*
X10223810Y-13223524D01*
X10233333Y-13242571D01*
X10233333Y-13261619D01*
X10223810Y-13290190D01*
X10109524Y-13404476D01*
X10233333Y-13404476D01*
X10300000Y-13204476D02*
X10433333Y-13204476D01*
X10347619Y-13404476D01*
X10595238Y-13204476D02*
X10557143Y-13204476D01*
X10538095Y-13214000D01*
X10528571Y-13223524D01*
X10509524Y-13252095D01*
X10500000Y-13290190D01*
X10500000Y-13366381D01*
X10509524Y-13385428D01*
X10519048Y-13394952D01*
X10538095Y-13404476D01*
X10576190Y-13404476D01*
X10595238Y-13394952D01*
X10604762Y-13385428D01*
X10614286Y-13366381D01*
X10614286Y-13318762D01*
X10604762Y-13299714D01*
X10595238Y-13290190D01*
X10576190Y-13280667D01*
X10538095Y-13280667D01*
X10519048Y-13290190D01*
X10509524Y-13299714D01*
X10500000Y-13318762D01*
X10690476Y-13204476D02*
X10690476Y-13242571D01*
X10766667Y-13204476D02*
X10766667Y-13242571D01*
X11061905Y-13480667D02*
X11052381Y-13471143D01*
X11033333Y-13442571D01*
X11023810Y-13423524D01*
X11014286Y-13394952D01*
X11004762Y-13347333D01*
X11004762Y-13309238D01*
X11014286Y-13261619D01*
X11023810Y-13233048D01*
X11033333Y-13214000D01*
X11052381Y-13185428D01*
X11061905Y-13175905D01*
X11223809Y-13271143D02*
X11223809Y-13404476D01*
X11176190Y-13194952D02*
X11128571Y-13337809D01*
X11252381Y-13337809D01*
X11480952Y-13404476D02*
X11480952Y-13204476D01*
X11566667Y-13404476D02*
X11566667Y-13299714D01*
X11557143Y-13280667D01*
X11538095Y-13271143D01*
X11509524Y-13271143D01*
X11490476Y-13280667D01*
X11480952Y-13290190D01*
X11690476Y-13404476D02*
X11671428Y-13394952D01*
X11661905Y-13385428D01*
X11652381Y-13366381D01*
X11652381Y-13309238D01*
X11661905Y-13290190D01*
X11671428Y-13280667D01*
X11690476Y-13271143D01*
X11719048Y-13271143D01*
X11738095Y-13280667D01*
X11747619Y-13290190D01*
X11757143Y-13309238D01*
X11757143Y-13366381D01*
X11747619Y-13385428D01*
X11738095Y-13394952D01*
X11719048Y-13404476D01*
X11690476Y-13404476D01*
X11871428Y-13404476D02*
X11852381Y-13394952D01*
X11842857Y-13375905D01*
X11842857Y-13204476D01*
X12023809Y-13394952D02*
X12004762Y-13404476D01*
X11966667Y-13404476D01*
X11947619Y-13394952D01*
X11938095Y-13375905D01*
X11938095Y-13299714D01*
X11947619Y-13280667D01*
X11966667Y-13271143D01*
X12004762Y-13271143D01*
X12023809Y-13280667D01*
X12033333Y-13299714D01*
X12033333Y-13318762D01*
X11938095Y-13337809D01*
X12109524Y-13394952D02*
X12128571Y-13404476D01*
X12166667Y-13404476D01*
X12185714Y-13394952D01*
X12195238Y-13375905D01*
X12195238Y-13366381D01*
X12185714Y-13347333D01*
X12166667Y-13337809D01*
X12138095Y-13337809D01*
X12119048Y-13328286D01*
X12109524Y-13309238D01*
X12109524Y-13299714D01*
X12119048Y-13280667D01*
X12138095Y-13271143D01*
X12166667Y-13271143D01*
X12185714Y-13280667D01*
X12261905Y-13480667D02*
X12271428Y-13471143D01*
X12290476Y-13442571D01*
X12300000Y-13423524D01*
X12309524Y-13394952D01*
X12319048Y-13347333D01*
X12319048Y-13309238D01*
X12309524Y-13261619D01*
X12300000Y-13233048D01*
X12290476Y-13214000D01*
X12271428Y-13185428D01*
X12261905Y-13175905D01*
D14*
X7450000Y-13538000D02*
X7450000Y-13618000D01*
X7410000Y-13578000D02*
X7490000Y-13578000D01*
D11*
X7785714Y-13468476D02*
X7804762Y-13468476D01*
X7823809Y-13478000D01*
X7833333Y-13487524D01*
X7842857Y-13506571D01*
X7852381Y-13544667D01*
X7852381Y-13592286D01*
X7842857Y-13630381D01*
X7833333Y-13649428D01*
X7823809Y-13658952D01*
X7804762Y-13668476D01*
X7785714Y-13668476D01*
X7766667Y-13658952D01*
X7757143Y-13649428D01*
X7747619Y-13630381D01*
X7738095Y-13592286D01*
X7738095Y-13544667D01*
X7747619Y-13506571D01*
X7757143Y-13487524D01*
X7766667Y-13478000D01*
X7785714Y-13468476D01*
X7938095Y-13649428D02*
X7947619Y-13658952D01*
X7938095Y-13668476D01*
X7928571Y-13658952D01*
X7938095Y-13649428D01*
X7938095Y-13668476D01*
X8061905Y-13554190D02*
X8042857Y-13544667D01*
X8033333Y-13535143D01*
X8023809Y-13516095D01*
X8023809Y-13506571D01*
X8033333Y-13487524D01*
X8042857Y-13478000D01*
X8061905Y-13468476D01*
X8100000Y-13468476D01*
X8119048Y-13478000D01*
X8128571Y-13487524D01*
X8138095Y-13506571D01*
X8138095Y-13516095D01*
X8128571Y-13535143D01*
X8119048Y-13544667D01*
X8100000Y-13554190D01*
X8061905Y-13554190D01*
X8042857Y-13563714D01*
X8033333Y-13573238D01*
X8023809Y-13592286D01*
X8023809Y-13630381D01*
X8033333Y-13649428D01*
X8042857Y-13658952D01*
X8061905Y-13668476D01*
X8100000Y-13668476D01*
X8119048Y-13658952D01*
X8128571Y-13649428D01*
X8138095Y-13630381D01*
X8138095Y-13592286D01*
X8128571Y-13573238D01*
X8119048Y-13563714D01*
X8100000Y-13554190D01*
X8261905Y-13468476D02*
X8280952Y-13468476D01*
X8300000Y-13478000D01*
X8309524Y-13487524D01*
X8319048Y-13506571D01*
X8328571Y-13544667D01*
X8328571Y-13592286D01*
X8319048Y-13630381D01*
X8309524Y-13649428D01*
X8300000Y-13658952D01*
X8280952Y-13668476D01*
X8261905Y-13668476D01*
X8242857Y-13658952D01*
X8233333Y-13649428D01*
X8223809Y-13630381D01*
X8214286Y-13592286D01*
X8214286Y-13544667D01*
X8223809Y-13506571D01*
X8233333Y-13487524D01*
X8242857Y-13478000D01*
X8261905Y-13468476D01*
X8452381Y-13468476D02*
X8471429Y-13468476D01*
X8490476Y-13478000D01*
X8500000Y-13487524D01*
X8509524Y-13506571D01*
X8519048Y-13544667D01*
X8519048Y-13592286D01*
X8509524Y-13630381D01*
X8500000Y-13649428D01*
X8490476Y-13658952D01*
X8471429Y-13668476D01*
X8452381Y-13668476D01*
X8433333Y-13658952D01*
X8423810Y-13649428D01*
X8414286Y-13630381D01*
X8404762Y-13592286D01*
X8404762Y-13544667D01*
X8414286Y-13506571D01*
X8423810Y-13487524D01*
X8433333Y-13478000D01*
X8452381Y-13468476D01*
X8604762Y-13668476D02*
X8604762Y-13535143D01*
X8604762Y-13554190D02*
X8614286Y-13544667D01*
X8633333Y-13535143D01*
X8661905Y-13535143D01*
X8680952Y-13544667D01*
X8690476Y-13563714D01*
X8690476Y-13668476D01*
X8690476Y-13563714D02*
X8700000Y-13544667D01*
X8719048Y-13535143D01*
X8747619Y-13535143D01*
X8766667Y-13544667D01*
X8776190Y-13563714D01*
X8776190Y-13668476D01*
X8871429Y-13668476D02*
X8871429Y-13535143D01*
X8871429Y-13554190D02*
X8880952Y-13544667D01*
X8900000Y-13535143D01*
X8928571Y-13535143D01*
X8947619Y-13544667D01*
X8957143Y-13563714D01*
X8957143Y-13668476D01*
X8957143Y-13563714D02*
X8966667Y-13544667D01*
X8985714Y-13535143D01*
X9014286Y-13535143D01*
X9033333Y-13544667D01*
X9042857Y-13563714D01*
X9042857Y-13668476D01*
X9433333Y-13458952D02*
X9261905Y-13716095D01*
X9690476Y-13468476D02*
X9709524Y-13468476D01*
X9728571Y-13478000D01*
X9738095Y-13487524D01*
X9747619Y-13506571D01*
X9757143Y-13544667D01*
X9757143Y-13592286D01*
X9747619Y-13630381D01*
X9738095Y-13649428D01*
X9728571Y-13658952D01*
X9709524Y-13668476D01*
X9690476Y-13668476D01*
X9671429Y-13658952D01*
X9661905Y-13649428D01*
X9652381Y-13630381D01*
X9642857Y-13592286D01*
X9642857Y-13544667D01*
X9652381Y-13506571D01*
X9661905Y-13487524D01*
X9671429Y-13478000D01*
X9690476Y-13468476D01*
X9842857Y-13649428D02*
X9852381Y-13658952D01*
X9842857Y-13668476D01*
X9833333Y-13658952D01*
X9842857Y-13649428D01*
X9842857Y-13668476D01*
X9976190Y-13468476D02*
X9995238Y-13468476D01*
X10014286Y-13478000D01*
X10023810Y-13487524D01*
X10033333Y-13506571D01*
X10042857Y-13544667D01*
X10042857Y-13592286D01*
X10033333Y-13630381D01*
X10023810Y-13649428D01*
X10014286Y-13658952D01*
X9995238Y-13668476D01*
X9976190Y-13668476D01*
X9957143Y-13658952D01*
X9947619Y-13649428D01*
X9938095Y-13630381D01*
X9928571Y-13592286D01*
X9928571Y-13544667D01*
X9938095Y-13506571D01*
X9947619Y-13487524D01*
X9957143Y-13478000D01*
X9976190Y-13468476D01*
X10109524Y-13468476D02*
X10233333Y-13468476D01*
X10166667Y-13544667D01*
X10195238Y-13544667D01*
X10214286Y-13554190D01*
X10223810Y-13563714D01*
X10233333Y-13582762D01*
X10233333Y-13630381D01*
X10223810Y-13649428D01*
X10214286Y-13658952D01*
X10195238Y-13668476D01*
X10138095Y-13668476D01*
X10119048Y-13658952D01*
X10109524Y-13649428D01*
X10423810Y-13668476D02*
X10309524Y-13668476D01*
X10366667Y-13668476D02*
X10366667Y-13468476D01*
X10347619Y-13497048D01*
X10328571Y-13516095D01*
X10309524Y-13525619D01*
X10604762Y-13468476D02*
X10509524Y-13468476D01*
X10500000Y-13563714D01*
X10509524Y-13554190D01*
X10528571Y-13544667D01*
X10576190Y-13544667D01*
X10595238Y-13554190D01*
X10604762Y-13563714D01*
X10614286Y-13582762D01*
X10614286Y-13630381D01*
X10604762Y-13649428D01*
X10595238Y-13658952D01*
X10576190Y-13668476D01*
X10528571Y-13668476D01*
X10509524Y-13658952D01*
X10500000Y-13649428D01*
X10690476Y-13468476D02*
X10690476Y-13506571D01*
X10766667Y-13468476D02*
X10766667Y-13506571D01*
X11061905Y-13744667D02*
X11052381Y-13735143D01*
X11033333Y-13706571D01*
X11023810Y-13687524D01*
X11014286Y-13658952D01*
X11004762Y-13611333D01*
X11004762Y-13573238D01*
X11014286Y-13525619D01*
X11023810Y-13497048D01*
X11033333Y-13478000D01*
X11052381Y-13449428D01*
X11061905Y-13439905D01*
X11176190Y-13468476D02*
X11195238Y-13468476D01*
X11214286Y-13478000D01*
X11223809Y-13487524D01*
X11233333Y-13506571D01*
X11242857Y-13544667D01*
X11242857Y-13592286D01*
X11233333Y-13630381D01*
X11223809Y-13649428D01*
X11214286Y-13658952D01*
X11195238Y-13668476D01*
X11176190Y-13668476D01*
X11157143Y-13658952D01*
X11147619Y-13649428D01*
X11138095Y-13630381D01*
X11128571Y-13592286D01*
X11128571Y-13544667D01*
X11138095Y-13506571D01*
X11147619Y-13487524D01*
X11157143Y-13478000D01*
X11176190Y-13468476D01*
X11480952Y-13668476D02*
X11480952Y-13468476D01*
X11566667Y-13668476D02*
X11566667Y-13563714D01*
X11557143Y-13544667D01*
X11538095Y-13535143D01*
X11509524Y-13535143D01*
X11490476Y-13544667D01*
X11480952Y-13554190D01*
X11690476Y-13668476D02*
X11671428Y-13658952D01*
X11661905Y-13649428D01*
X11652381Y-13630381D01*
X11652381Y-13573238D01*
X11661905Y-13554190D01*
X11671428Y-13544667D01*
X11690476Y-13535143D01*
X11719048Y-13535143D01*
X11738095Y-13544667D01*
X11747619Y-13554190D01*
X11757143Y-13573238D01*
X11757143Y-13630381D01*
X11747619Y-13649428D01*
X11738095Y-13658952D01*
X11719048Y-13668476D01*
X11690476Y-13668476D01*
X11871428Y-13668476D02*
X11852381Y-13658952D01*
X11842857Y-13639905D01*
X11842857Y-13468476D01*
X12023809Y-13658952D02*
X12004762Y-13668476D01*
X11966667Y-13668476D01*
X11947619Y-13658952D01*
X11938095Y-13639905D01*
X11938095Y-13563714D01*
X11947619Y-13544667D01*
X11966667Y-13535143D01*
X12004762Y-13535143D01*
X12023809Y-13544667D01*
X12033333Y-13563714D01*
X12033333Y-13582762D01*
X11938095Y-13601809D01*
X12109524Y-13658952D02*
X12128571Y-13668476D01*
X12166667Y-13668476D01*
X12185714Y-13658952D01*
X12195238Y-13639905D01*
X12195238Y-13630381D01*
X12185714Y-13611333D01*
X12166667Y-13601809D01*
X12138095Y-13601809D01*
X12119048Y-13592286D01*
X12109524Y-13573238D01*
X12109524Y-13563714D01*
X12119048Y-13544667D01*
X12138095Y-13535143D01*
X12166667Y-13535143D01*
X12185714Y-13544667D01*
X12433333Y-13592286D02*
X12585714Y-13592286D01*
X12509524Y-13668476D02*
X12509524Y-13516095D01*
X12814286Y-13468476D02*
X12938095Y-13468476D01*
X12871428Y-13544667D01*
X12900000Y-13544667D01*
X12919048Y-13554190D01*
X12928571Y-13563714D01*
X12938095Y-13582762D01*
X12938095Y-13630381D01*
X12928571Y-13649428D01*
X12919048Y-13658952D01*
X12900000Y-13668476D01*
X12842857Y-13668476D01*
X12823809Y-13658952D01*
X12814286Y-13649428D01*
X13166667Y-13658952D02*
X13185714Y-13668476D01*
X13223809Y-13668476D01*
X13242857Y-13658952D01*
X13252381Y-13639905D01*
X13252381Y-13630381D01*
X13242857Y-13611333D01*
X13223809Y-13601809D01*
X13195238Y-13601809D01*
X13176190Y-13592286D01*
X13166667Y-13573238D01*
X13166667Y-13563714D01*
X13176190Y-13544667D01*
X13195238Y-13535143D01*
X13223809Y-13535143D01*
X13242857Y-13544667D01*
X13366667Y-13668476D02*
X13347619Y-13658952D01*
X13338095Y-13639905D01*
X13338095Y-13468476D01*
X13471428Y-13668476D02*
X13452381Y-13658952D01*
X13442857Y-13649428D01*
X13433333Y-13630381D01*
X13433333Y-13573238D01*
X13442857Y-13554190D01*
X13452381Y-13544667D01*
X13471428Y-13535143D01*
X13500000Y-13535143D01*
X13519048Y-13544667D01*
X13528571Y-13554190D01*
X13538095Y-13573238D01*
X13538095Y-13630381D01*
X13528571Y-13649428D01*
X13519048Y-13658952D01*
X13500000Y-13668476D01*
X13471428Y-13668476D01*
X13595238Y-13535143D02*
X13671428Y-13535143D01*
X13623809Y-13468476D02*
X13623809Y-13639905D01*
X13633333Y-13658952D01*
X13652381Y-13668476D01*
X13671428Y-13668476D01*
X13728571Y-13658952D02*
X13747619Y-13668476D01*
X13785714Y-13668476D01*
X13804762Y-13658952D01*
X13814286Y-13639905D01*
X13814286Y-13630381D01*
X13804762Y-13611333D01*
X13785714Y-13601809D01*
X13757143Y-13601809D01*
X13738095Y-13592286D01*
X13728571Y-13573238D01*
X13728571Y-13563714D01*
X13738095Y-13544667D01*
X13757143Y-13535143D01*
X13785714Y-13535143D01*
X13804762Y-13544667D01*
X13880952Y-13744667D02*
X13890476Y-13735143D01*
X13909524Y-13706571D01*
X13919048Y-13687524D01*
X13928571Y-13658952D01*
X13938095Y-13611333D01*
X13938095Y-13573238D01*
X13928571Y-13525619D01*
X13919048Y-13497048D01*
X13909524Y-13478000D01*
X13890476Y-13449428D01*
X13880952Y-13439905D01*
D15*
X7466569Y-13898569D02*
X7466569Y-13785431D01*
X7353431Y-13785431D01*
X7353431Y-13898569D01*
X7466569Y-13898569D01*
D11*
X7852381Y-13932476D02*
X7738095Y-13932476D01*
X7795238Y-13932476D02*
X7795238Y-13732476D01*
X7776190Y-13761048D01*
X7757143Y-13780095D01*
X7738095Y-13789619D01*
X7938095Y-13913428D02*
X7947619Y-13922952D01*
X7938095Y-13932476D01*
X7928571Y-13922952D01*
X7938095Y-13913428D01*
X7938095Y-13932476D01*
X8119048Y-13732476D02*
X8080952Y-13732476D01*
X8061905Y-13742000D01*
X8052381Y-13751524D01*
X8033333Y-13780095D01*
X8023809Y-13818190D01*
X8023809Y-13894381D01*
X8033333Y-13913428D01*
X8042857Y-13922952D01*
X8061905Y-13932476D01*
X8100000Y-13932476D01*
X8119048Y-13922952D01*
X8128571Y-13913428D01*
X8138095Y-13894381D01*
X8138095Y-13846762D01*
X8128571Y-13827714D01*
X8119048Y-13818190D01*
X8100000Y-13808667D01*
X8061905Y-13808667D01*
X8042857Y-13818190D01*
X8033333Y-13827714D01*
X8023809Y-13846762D01*
X8261905Y-13732476D02*
X8280952Y-13732476D01*
X8300000Y-13742000D01*
X8309524Y-13751524D01*
X8319048Y-13770571D01*
X8328571Y-13808667D01*
X8328571Y-13856286D01*
X8319048Y-13894381D01*
X8309524Y-13913428D01*
X8300000Y-13922952D01*
X8280952Y-13932476D01*
X8261905Y-13932476D01*
X8242857Y-13922952D01*
X8233333Y-13913428D01*
X8223809Y-13894381D01*
X8214286Y-13856286D01*
X8214286Y-13808667D01*
X8223809Y-13770571D01*
X8233333Y-13751524D01*
X8242857Y-13742000D01*
X8261905Y-13732476D01*
X8452381Y-13732476D02*
X8471429Y-13732476D01*
X8490476Y-13742000D01*
X8500000Y-13751524D01*
X8509524Y-13770571D01*
X8519048Y-13808667D01*
X8519048Y-13856286D01*
X8509524Y-13894381D01*
X8500000Y-13913428D01*
X8490476Y-13922952D01*
X8471429Y-13932476D01*
X8452381Y-13932476D01*
X8433333Y-13922952D01*
X8423810Y-13913428D01*
X8414286Y-13894381D01*
X8404762Y-13856286D01*
X8404762Y-13808667D01*
X8414286Y-13770571D01*
X8423810Y-13751524D01*
X8433333Y-13742000D01*
X8452381Y-13732476D01*
X8604762Y-13932476D02*
X8604762Y-13799143D01*
X8604762Y-13818190D02*
X8614286Y-13808667D01*
X8633333Y-13799143D01*
X8661905Y-13799143D01*
X8680952Y-13808667D01*
X8690476Y-13827714D01*
X8690476Y-13932476D01*
X8690476Y-13827714D02*
X8700000Y-13808667D01*
X8719048Y-13799143D01*
X8747619Y-13799143D01*
X8766667Y-13808667D01*
X8776190Y-13827714D01*
X8776190Y-13932476D01*
X8871429Y-13932476D02*
X8871429Y-13799143D01*
X8871429Y-13818190D02*
X8880952Y-13808667D01*
X8900000Y-13799143D01*
X8928571Y-13799143D01*
X8947619Y-13808667D01*
X8957143Y-13827714D01*
X8957143Y-13932476D01*
X8957143Y-13827714D02*
X8966667Y-13808667D01*
X8985714Y-13799143D01*
X9014286Y-13799143D01*
X9033333Y-13808667D01*
X9042857Y-13827714D01*
X9042857Y-13932476D01*
X9433333Y-13722952D02*
X9261905Y-13980095D01*
X9690476Y-13732476D02*
X9709524Y-13732476D01*
X9728571Y-13742000D01*
X9738095Y-13751524D01*
X9747619Y-13770571D01*
X9757143Y-13808667D01*
X9757143Y-13856286D01*
X9747619Y-13894381D01*
X9738095Y-13913428D01*
X9728571Y-13922952D01*
X9709524Y-13932476D01*
X9690476Y-13932476D01*
X9671429Y-13922952D01*
X9661905Y-13913428D01*
X9652381Y-13894381D01*
X9642857Y-13856286D01*
X9642857Y-13808667D01*
X9652381Y-13770571D01*
X9661905Y-13751524D01*
X9671429Y-13742000D01*
X9690476Y-13732476D01*
X9842857Y-13913428D02*
X9852381Y-13922952D01*
X9842857Y-13932476D01*
X9833333Y-13922952D01*
X9842857Y-13913428D01*
X9842857Y-13932476D01*
X9976190Y-13732476D02*
X9995238Y-13732476D01*
X10014286Y-13742000D01*
X10023810Y-13751524D01*
X10033333Y-13770571D01*
X10042857Y-13808667D01*
X10042857Y-13856286D01*
X10033333Y-13894381D01*
X10023810Y-13913428D01*
X10014286Y-13922952D01*
X9995238Y-13932476D01*
X9976190Y-13932476D01*
X9957143Y-13922952D01*
X9947619Y-13913428D01*
X9938095Y-13894381D01*
X9928571Y-13856286D01*
X9928571Y-13808667D01*
X9938095Y-13770571D01*
X9947619Y-13751524D01*
X9957143Y-13742000D01*
X9976190Y-13732476D01*
X10214286Y-13732476D02*
X10176190Y-13732476D01*
X10157143Y-13742000D01*
X10147619Y-13751524D01*
X10128571Y-13780095D01*
X10119048Y-13818190D01*
X10119048Y-13894381D01*
X10128571Y-13913428D01*
X10138095Y-13922952D01*
X10157143Y-13932476D01*
X10195238Y-13932476D01*
X10214286Y-13922952D01*
X10223810Y-13913428D01*
X10233333Y-13894381D01*
X10233333Y-13846762D01*
X10223810Y-13827714D01*
X10214286Y-13818190D01*
X10195238Y-13808667D01*
X10157143Y-13808667D01*
X10138095Y-13818190D01*
X10128571Y-13827714D01*
X10119048Y-13846762D01*
X10300000Y-13732476D02*
X10423810Y-13732476D01*
X10357143Y-13808667D01*
X10385714Y-13808667D01*
X10404762Y-13818190D01*
X10414286Y-13827714D01*
X10423810Y-13846762D01*
X10423810Y-13894381D01*
X10414286Y-13913428D01*
X10404762Y-13922952D01*
X10385714Y-13932476D01*
X10328571Y-13932476D01*
X10309524Y-13922952D01*
X10300000Y-13913428D01*
X10547619Y-13732476D02*
X10566667Y-13732476D01*
X10585714Y-13742000D01*
X10595238Y-13751524D01*
X10604762Y-13770571D01*
X10614286Y-13808667D01*
X10614286Y-13856286D01*
X10604762Y-13894381D01*
X10595238Y-13913428D01*
X10585714Y-13922952D01*
X10566667Y-13932476D01*
X10547619Y-13932476D01*
X10528571Y-13922952D01*
X10519048Y-13913428D01*
X10509524Y-13894381D01*
X10500000Y-13856286D01*
X10500000Y-13808667D01*
X10509524Y-13770571D01*
X10519048Y-13751524D01*
X10528571Y-13742000D01*
X10547619Y-13732476D01*
X10690476Y-13732476D02*
X10690476Y-13770571D01*
X10766667Y-13732476D02*
X10766667Y-13770571D01*
X11061905Y-14008667D02*
X11052381Y-13999143D01*
X11033333Y-13970571D01*
X11023810Y-13951524D01*
X11014286Y-13922952D01*
X11004762Y-13875333D01*
X11004762Y-13837238D01*
X11014286Y-13789619D01*
X11023810Y-13761048D01*
X11033333Y-13742000D01*
X11052381Y-13713428D01*
X11061905Y-13703905D01*
X11166667Y-13818190D02*
X11147619Y-13808667D01*
X11138095Y-13799143D01*
X11128571Y-13780095D01*
X11128571Y-13770571D01*
X11138095Y-13751524D01*
X11147619Y-13742000D01*
X11166667Y-13732476D01*
X11204762Y-13732476D01*
X11223809Y-13742000D01*
X11233333Y-13751524D01*
X11242857Y-13770571D01*
X11242857Y-13780095D01*
X11233333Y-13799143D01*
X11223809Y-13808667D01*
X11204762Y-13818190D01*
X11166667Y-13818190D01*
X11147619Y-13827714D01*
X11138095Y-13837238D01*
X11128571Y-13856286D01*
X11128571Y-13894381D01*
X11138095Y-13913428D01*
X11147619Y-13922952D01*
X11166667Y-13932476D01*
X11204762Y-13932476D01*
X11223809Y-13922952D01*
X11233333Y-13913428D01*
X11242857Y-13894381D01*
X11242857Y-13856286D01*
X11233333Y-13837238D01*
X11223809Y-13827714D01*
X11204762Y-13818190D01*
X11480952Y-13932476D02*
X11480952Y-13732476D01*
X11566667Y-13932476D02*
X11566667Y-13827714D01*
X11557143Y-13808667D01*
X11538095Y-13799143D01*
X11509524Y-13799143D01*
X11490476Y-13808667D01*
X11480952Y-13818190D01*
X11690476Y-13932476D02*
X11671428Y-13922952D01*
X11661905Y-13913428D01*
X11652381Y-13894381D01*
X11652381Y-13837238D01*
X11661905Y-13818190D01*
X11671428Y-13808667D01*
X11690476Y-13799143D01*
X11719048Y-13799143D01*
X11738095Y-13808667D01*
X11747619Y-13818190D01*
X11757143Y-13837238D01*
X11757143Y-13894381D01*
X11747619Y-13913428D01*
X11738095Y-13922952D01*
X11719048Y-13932476D01*
X11690476Y-13932476D01*
X11871428Y-13932476D02*
X11852381Y-13922952D01*
X11842857Y-13903905D01*
X11842857Y-13732476D01*
X12023809Y-13922952D02*
X12004762Y-13932476D01*
X11966667Y-13932476D01*
X11947619Y-13922952D01*
X11938095Y-13903905D01*
X11938095Y-13827714D01*
X11947619Y-13808667D01*
X11966667Y-13799143D01*
X12004762Y-13799143D01*
X12023809Y-13808667D01*
X12033333Y-13827714D01*
X12033333Y-13846762D01*
X11938095Y-13865809D01*
X12109524Y-13922952D02*
X12128571Y-13932476D01*
X12166667Y-13932476D01*
X12185714Y-13922952D01*
X12195238Y-13903905D01*
X12195238Y-13894381D01*
X12185714Y-13875333D01*
X12166667Y-13865809D01*
X12138095Y-13865809D01*
X12119048Y-13856286D01*
X12109524Y-13837238D01*
X12109524Y-13827714D01*
X12119048Y-13808667D01*
X12138095Y-13799143D01*
X12166667Y-13799143D01*
X12185714Y-13808667D01*
X12261905Y-14008667D02*
X12271428Y-13999143D01*
X12290476Y-13970571D01*
X12300000Y-13951524D01*
X12309524Y-13922952D01*
X12319048Y-13875333D01*
X12319048Y-13837238D01*
X12309524Y-13789619D01*
X12300000Y-13761048D01*
X12290476Y-13742000D01*
X12271428Y-13713428D01*
X12261905Y-13703905D01*
M02*
