M48
; DRILL file {KiCad 6.0.0-d3dd2cf0fa~116~ubuntu21.10.1} date Thu Feb  3 21:45:13 2022
; FORMAT={-:-/ absolute / metric / decimal}
; #@! TF.CreationDate,2022-02-03T21:45:13+00:00
; #@! TF.GenerationSoftware,Kicad,Pcbnew,6.0.0-d3dd2cf0fa~116~ubuntu21.10.1
; #@! TF.FileFunction,Plated,1,2,PTH
FMAT,2
METRIC
; #@! TA.AperFunction,Plated,PTH,ViaDrill
T1C0.400
; #@! TA.AperFunction,Plated,PTH,ComponentDrill
T2C0.700
; #@! TA.AperFunction,Plated,PTH,ComponentDrill
T3C0.800
; #@! TA.AperFunction,Plated,PTH,ComponentDrill
T4C1.600
%
G90
G05
T1
X85.0Y-110.0
X88.5Y-90.5
X99.0Y-102.0
X102.5Y-109.5
X106.0Y-111.5
X107.0Y-118.0
T2
X86.73Y-110.5
X88.0Y-109.23
X88.0Y-111.77
X89.27Y-110.5
T4
X110.96Y-93.46
X110.96Y-98.54
X110.96Y-110.46
X110.96Y-115.54
X116.04Y-93.46
X116.04Y-98.54
X116.04Y-110.46
X116.04Y-115.54
T3
G00X80.0Y-93.65
M15
G01X80.0Y-95.35
M16
G05
G00X82.25Y-99.2
M15
G01X83.95Y-99.2
M16
G05
G00X85.9Y-93.15
M15
G01X85.9Y-95.85
M16
G05
T0
M30
