%TF.GenerationSoftware,KiCad,Pcbnew,6.0.0-d3dd2cf0fa~116~ubuntu21.10.1*%
%TF.CreationDate,2022-02-03T20:37:09+00:00*%
%TF.ProjectId,pcb-adr1399-vref,7063622d-6164-4723-9133-39392d767265,rev?*%
%TF.SameCoordinates,Original*%
%TF.FileFunction,Soldermask,Top*%
%TF.FilePolarity,Negative*%
%FSLAX46Y46*%
G04 Gerber Fmt 4.6, Leading zero omitted, Abs format (unit mm)*
G04 Created by KiCad (PCBNEW 6.0.0-d3dd2cf0fa~116~ubuntu21.10.1) date 2022-02-03 20:37:09*
%MOMM*%
%LPD*%
G01*
G04 APERTURE LIST*
G04 Aperture macros list*
%AMRoundRect*
0 Rectangle with rounded corners*
0 $1 Rounding radius*
0 $2 $3 $4 $5 $6 $7 $8 $9 X,Y pos of 4 corners*
0 Add a 4 corners polygon primitive as box body*
4,1,4,$2,$3,$4,$5,$6,$7,$8,$9,$2,$3,0*
0 Add four circle primitives for the rounded corners*
1,1,$1+$1,$2,$3*
1,1,$1+$1,$4,$5*
1,1,$1+$1,$6,$7*
1,1,$1+$1,$8,$9*
0 Add four rect primitives between the rounded corners*
20,1,$1+$1,$2,$3,$4,$5,0*
20,1,$1+$1,$4,$5,$6,$7,0*
20,1,$1+$1,$6,$7,$8,$9,0*
20,1,$1+$1,$8,$9,$2,$3,0*%
G04 Aperture macros list end*
%ADD10RoundRect,0.900000X0.000000X-1.350000X0.000000X-1.350000X0.000000X1.350000X0.000000X1.350000X0*%
%ADD11RoundRect,0.900000X0.000000X-0.850000X0.000000X-0.850000X0.000000X0.850000X0.000000X0.850000X0*%
%ADD12RoundRect,0.900000X-0.850000X0.000000X0.850000X0.000000X0.850000X0.000000X-0.850000X0.000000X0*%
%ADD13RoundRect,0.250000X0.450000X-0.350000X0.450000X0.350000X-0.450000X0.350000X-0.450000X-0.350000X0*%
%ADD14RoundRect,0.250000X-0.337500X-0.475000X0.337500X-0.475000X0.337500X0.475000X-0.337500X0.475000X0*%
%ADD15C,2.800000*%
%ADD16RoundRect,0.250000X-0.350000X-0.450000X0.350000X-0.450000X0.350000X0.450000X-0.350000X0.450000X0*%
%ADD17RoundRect,0.150000X-0.150000X0.725000X-0.150000X-0.725000X0.150000X-0.725000X0.150000X0.725000X0*%
%ADD18O,1.600000X1.200000*%
%ADD19C,1.200000*%
%ADD20RoundRect,0.250000X0.350000X0.450000X-0.350000X0.450000X-0.350000X-0.450000X0.350000X-0.450000X0*%
%ADD21RoundRect,0.250000X0.650000X-0.412500X0.650000X0.412500X-0.650000X0.412500X-0.650000X-0.412500X0*%
%ADD22RoundRect,0.250000X-0.574524X-0.097227X-0.097227X-0.574524X0.574524X0.097227X0.097227X0.574524X0*%
%ADD23RoundRect,0.250000X0.475000X-0.337500X0.475000X0.337500X-0.475000X0.337500X-0.475000X-0.337500X0*%
G04 APERTURE END LIST*
D10*
%TO.C,J1*%
X85900000Y-94500000D03*
D11*
X80000000Y-94500000D03*
D12*
X83100000Y-99200000D03*
%TD*%
D13*
%TO.C,R2*%
X100000000Y-113500000D03*
X100000000Y-111500000D03*
%TD*%
D14*
%TO.C,C4*%
X104962500Y-116500000D03*
X107037500Y-116500000D03*
%TD*%
D15*
%TO.C,J3*%
X110960000Y-93460000D03*
X116040000Y-93460000D03*
X116040000Y-98540000D03*
X110960000Y-98540000D03*
%TD*%
D16*
%TO.C,R3*%
X100000000Y-116500000D03*
X102000000Y-116500000D03*
%TD*%
D17*
%TO.C,U2*%
X106905000Y-107925000D03*
X105635000Y-107925000D03*
X104365000Y-107925000D03*
X103095000Y-107925000D03*
X103095000Y-113075000D03*
X104365000Y-113075000D03*
X105635000Y-113075000D03*
X106905000Y-113075000D03*
%TD*%
D16*
%TO.C,R5*%
X108000000Y-104500000D03*
X110000000Y-104500000D03*
%TD*%
D15*
%TO.C,J2*%
X110960000Y-110460000D03*
X116040000Y-110460000D03*
X116040000Y-115540000D03*
X110960000Y-115540000D03*
%TD*%
D18*
%TO.C,U1*%
X89270000Y-110500000D03*
D19*
X88000000Y-109230000D03*
X86730000Y-110500000D03*
X88000000Y-111770000D03*
%TD*%
D20*
%TO.C,R4*%
X105000000Y-104500000D03*
X103000000Y-104500000D03*
%TD*%
D21*
%TO.C,C1*%
X90500000Y-93562500D03*
X90500000Y-90437500D03*
%TD*%
D22*
%TO.C,C2*%
X84766377Y-112266377D03*
X86233623Y-113733623D03*
%TD*%
D20*
%TO.C,R1*%
X102000000Y-119000000D03*
X100000000Y-119000000D03*
%TD*%
D23*
%TO.C,C3*%
X100000000Y-109537500D03*
X100000000Y-107462500D03*
%TD*%
M02*
