G04 #@! TF.GenerationSoftware,KiCad,Pcbnew,6.0.0-d3dd2cf0fa~116~ubuntu21.10.1*
G04 #@! TF.CreationDate,2022-02-03T21:45:13+00:00*
G04 #@! TF.ProjectId,pcb-adr1399-vref,7063622d-6164-4723-9133-39392d767265,rev?*
G04 #@! TF.SameCoordinates,Original*
G04 #@! TF.FileFunction,Soldermask,Top*
G04 #@! TF.FilePolarity,Negative*
%FSLAX46Y46*%
G04 Gerber Fmt 4.6, Leading zero omitted, Abs format (unit mm)*
G04 Created by KiCad (PCBNEW 6.0.0-d3dd2cf0fa~116~ubuntu21.10.1) date 2022-02-03 21:45:13*
%MOMM*%
%LPD*%
G01*
G04 APERTURE LIST*
%ADD10C,2.800000*%
%ADD11O,1.600000X1.200000*%
%ADD12C,1.200000*%
G04 APERTURE END LIST*
G36*
G01*
X85000000Y-95850000D02*
X85000000Y-93150000D01*
G75*
G02*
X85900000Y-92250000I900000J0D01*
G01*
X85900000Y-92250000D01*
G75*
G02*
X86800000Y-93150000I0J-900000D01*
G01*
X86800000Y-95850000D01*
G75*
G02*
X85900000Y-96750000I-900000J0D01*
G01*
X85900000Y-96750000D01*
G75*
G02*
X85000000Y-95850000I0J900000D01*
G01*
G37*
G36*
G01*
X79100000Y-95350000D02*
X79100000Y-93650000D01*
G75*
G02*
X80000000Y-92750000I900000J0D01*
G01*
X80000000Y-92750000D01*
G75*
G02*
X80900000Y-93650000I0J-900000D01*
G01*
X80900000Y-95350000D01*
G75*
G02*
X80000000Y-96250000I-900000J0D01*
G01*
X80000000Y-96250000D01*
G75*
G02*
X79100000Y-95350000I0J900000D01*
G01*
G37*
G36*
G01*
X81350000Y-99200000D02*
X81350000Y-99200000D01*
G75*
G02*
X82250000Y-98300000I900000J0D01*
G01*
X83950000Y-98300000D01*
G75*
G02*
X84850000Y-99200000I0J-900000D01*
G01*
X84850000Y-99200000D01*
G75*
G02*
X83950000Y-100100000I-900000J0D01*
G01*
X82250000Y-100100000D01*
G75*
G02*
X81350000Y-99200000I0J900000D01*
G01*
G37*
G36*
G01*
X100450000Y-114100000D02*
X99550000Y-114100000D01*
G75*
G02*
X99300000Y-113850000I0J250000D01*
G01*
X99300000Y-113150000D01*
G75*
G02*
X99550000Y-112900000I250000J0D01*
G01*
X100450000Y-112900000D01*
G75*
G02*
X100700000Y-113150000I0J-250000D01*
G01*
X100700000Y-113850000D01*
G75*
G02*
X100450000Y-114100000I-250000J0D01*
G01*
G37*
G36*
G01*
X100450000Y-112100000D02*
X99550000Y-112100000D01*
G75*
G02*
X99300000Y-111850000I0J250000D01*
G01*
X99300000Y-111150000D01*
G75*
G02*
X99550000Y-110900000I250000J0D01*
G01*
X100450000Y-110900000D01*
G75*
G02*
X100700000Y-111150000I0J-250000D01*
G01*
X100700000Y-111850000D01*
G75*
G02*
X100450000Y-112100000I-250000J0D01*
G01*
G37*
G36*
G01*
X104375000Y-116975000D02*
X104375000Y-116025000D01*
G75*
G02*
X104625000Y-115775000I250000J0D01*
G01*
X105300000Y-115775000D01*
G75*
G02*
X105550000Y-116025000I0J-250000D01*
G01*
X105550000Y-116975000D01*
G75*
G02*
X105300000Y-117225000I-250000J0D01*
G01*
X104625000Y-117225000D01*
G75*
G02*
X104375000Y-116975000I0J250000D01*
G01*
G37*
G36*
G01*
X106450000Y-116975000D02*
X106450000Y-116025000D01*
G75*
G02*
X106700000Y-115775000I250000J0D01*
G01*
X107375000Y-115775000D01*
G75*
G02*
X107625000Y-116025000I0J-250000D01*
G01*
X107625000Y-116975000D01*
G75*
G02*
X107375000Y-117225000I-250000J0D01*
G01*
X106700000Y-117225000D01*
G75*
G02*
X106450000Y-116975000I0J250000D01*
G01*
G37*
D10*
X110960000Y-93460000D03*
X116040000Y-93460000D03*
X116040000Y-98540000D03*
X110960000Y-98540000D03*
G36*
G01*
X99400000Y-116950000D02*
X99400000Y-116050000D01*
G75*
G02*
X99650000Y-115800000I250000J0D01*
G01*
X100350000Y-115800000D01*
G75*
G02*
X100600000Y-116050000I0J-250000D01*
G01*
X100600000Y-116950000D01*
G75*
G02*
X100350000Y-117200000I-250000J0D01*
G01*
X99650000Y-117200000D01*
G75*
G02*
X99400000Y-116950000I0J250000D01*
G01*
G37*
G36*
G01*
X101400000Y-116950000D02*
X101400000Y-116050000D01*
G75*
G02*
X101650000Y-115800000I250000J0D01*
G01*
X102350000Y-115800000D01*
G75*
G02*
X102600000Y-116050000I0J-250000D01*
G01*
X102600000Y-116950000D01*
G75*
G02*
X102350000Y-117200000I-250000J0D01*
G01*
X101650000Y-117200000D01*
G75*
G02*
X101400000Y-116950000I0J250000D01*
G01*
G37*
G36*
G01*
X106755000Y-107050000D02*
X107055000Y-107050000D01*
G75*
G02*
X107205000Y-107200000I0J-150000D01*
G01*
X107205000Y-108650000D01*
G75*
G02*
X107055000Y-108800000I-150000J0D01*
G01*
X106755000Y-108800000D01*
G75*
G02*
X106605000Y-108650000I0J150000D01*
G01*
X106605000Y-107200000D01*
G75*
G02*
X106755000Y-107050000I150000J0D01*
G01*
G37*
G36*
G01*
X105485000Y-107050000D02*
X105785000Y-107050000D01*
G75*
G02*
X105935000Y-107200000I0J-150000D01*
G01*
X105935000Y-108650000D01*
G75*
G02*
X105785000Y-108800000I-150000J0D01*
G01*
X105485000Y-108800000D01*
G75*
G02*
X105335000Y-108650000I0J150000D01*
G01*
X105335000Y-107200000D01*
G75*
G02*
X105485000Y-107050000I150000J0D01*
G01*
G37*
G36*
G01*
X104215000Y-107050000D02*
X104515000Y-107050000D01*
G75*
G02*
X104665000Y-107200000I0J-150000D01*
G01*
X104665000Y-108650000D01*
G75*
G02*
X104515000Y-108800000I-150000J0D01*
G01*
X104215000Y-108800000D01*
G75*
G02*
X104065000Y-108650000I0J150000D01*
G01*
X104065000Y-107200000D01*
G75*
G02*
X104215000Y-107050000I150000J0D01*
G01*
G37*
G36*
G01*
X102945000Y-107050000D02*
X103245000Y-107050000D01*
G75*
G02*
X103395000Y-107200000I0J-150000D01*
G01*
X103395000Y-108650000D01*
G75*
G02*
X103245000Y-108800000I-150000J0D01*
G01*
X102945000Y-108800000D01*
G75*
G02*
X102795000Y-108650000I0J150000D01*
G01*
X102795000Y-107200000D01*
G75*
G02*
X102945000Y-107050000I150000J0D01*
G01*
G37*
G36*
G01*
X102945000Y-112200000D02*
X103245000Y-112200000D01*
G75*
G02*
X103395000Y-112350000I0J-150000D01*
G01*
X103395000Y-113800000D01*
G75*
G02*
X103245000Y-113950000I-150000J0D01*
G01*
X102945000Y-113950000D01*
G75*
G02*
X102795000Y-113800000I0J150000D01*
G01*
X102795000Y-112350000D01*
G75*
G02*
X102945000Y-112200000I150000J0D01*
G01*
G37*
G36*
G01*
X104215000Y-112200000D02*
X104515000Y-112200000D01*
G75*
G02*
X104665000Y-112350000I0J-150000D01*
G01*
X104665000Y-113800000D01*
G75*
G02*
X104515000Y-113950000I-150000J0D01*
G01*
X104215000Y-113950000D01*
G75*
G02*
X104065000Y-113800000I0J150000D01*
G01*
X104065000Y-112350000D01*
G75*
G02*
X104215000Y-112200000I150000J0D01*
G01*
G37*
G36*
G01*
X105485000Y-112200000D02*
X105785000Y-112200000D01*
G75*
G02*
X105935000Y-112350000I0J-150000D01*
G01*
X105935000Y-113800000D01*
G75*
G02*
X105785000Y-113950000I-150000J0D01*
G01*
X105485000Y-113950000D01*
G75*
G02*
X105335000Y-113800000I0J150000D01*
G01*
X105335000Y-112350000D01*
G75*
G02*
X105485000Y-112200000I150000J0D01*
G01*
G37*
G36*
G01*
X106755000Y-112200000D02*
X107055000Y-112200000D01*
G75*
G02*
X107205000Y-112350000I0J-150000D01*
G01*
X107205000Y-113800000D01*
G75*
G02*
X107055000Y-113950000I-150000J0D01*
G01*
X106755000Y-113950000D01*
G75*
G02*
X106605000Y-113800000I0J150000D01*
G01*
X106605000Y-112350000D01*
G75*
G02*
X106755000Y-112200000I150000J0D01*
G01*
G37*
G36*
G01*
X107400000Y-104950000D02*
X107400000Y-104050000D01*
G75*
G02*
X107650000Y-103800000I250000J0D01*
G01*
X108350000Y-103800000D01*
G75*
G02*
X108600000Y-104050000I0J-250000D01*
G01*
X108600000Y-104950000D01*
G75*
G02*
X108350000Y-105200000I-250000J0D01*
G01*
X107650000Y-105200000D01*
G75*
G02*
X107400000Y-104950000I0J250000D01*
G01*
G37*
G36*
G01*
X109400000Y-104950000D02*
X109400000Y-104050000D01*
G75*
G02*
X109650000Y-103800000I250000J0D01*
G01*
X110350000Y-103800000D01*
G75*
G02*
X110600000Y-104050000I0J-250000D01*
G01*
X110600000Y-104950000D01*
G75*
G02*
X110350000Y-105200000I-250000J0D01*
G01*
X109650000Y-105200000D01*
G75*
G02*
X109400000Y-104950000I0J250000D01*
G01*
G37*
X110960000Y-110460000D03*
X116040000Y-110460000D03*
X116040000Y-115540000D03*
X110960000Y-115540000D03*
D11*
X89270000Y-110500000D03*
D12*
X88000000Y-109230000D03*
X86730000Y-110500000D03*
X88000000Y-111770000D03*
G36*
G01*
X105600000Y-104050000D02*
X105600000Y-104950000D01*
G75*
G02*
X105350000Y-105200000I-250000J0D01*
G01*
X104650000Y-105200000D01*
G75*
G02*
X104400000Y-104950000I0J250000D01*
G01*
X104400000Y-104050000D01*
G75*
G02*
X104650000Y-103800000I250000J0D01*
G01*
X105350000Y-103800000D01*
G75*
G02*
X105600000Y-104050000I0J-250000D01*
G01*
G37*
G36*
G01*
X103600000Y-104050000D02*
X103600000Y-104950000D01*
G75*
G02*
X103350000Y-105200000I-250000J0D01*
G01*
X102650000Y-105200000D01*
G75*
G02*
X102400000Y-104950000I0J250000D01*
G01*
X102400000Y-104050000D01*
G75*
G02*
X102650000Y-103800000I250000J0D01*
G01*
X103350000Y-103800000D01*
G75*
G02*
X103600000Y-104050000I0J-250000D01*
G01*
G37*
G36*
G01*
X91150000Y-94225000D02*
X89850000Y-94225000D01*
G75*
G02*
X89600000Y-93975000I0J250000D01*
G01*
X89600000Y-93150000D01*
G75*
G02*
X89850000Y-92900000I250000J0D01*
G01*
X91150000Y-92900000D01*
G75*
G02*
X91400000Y-93150000I0J-250000D01*
G01*
X91400000Y-93975000D01*
G75*
G02*
X91150000Y-94225000I-250000J0D01*
G01*
G37*
G36*
G01*
X91150000Y-91100000D02*
X89850000Y-91100000D01*
G75*
G02*
X89600000Y-90850000I0J250000D01*
G01*
X89600000Y-90025000D01*
G75*
G02*
X89850000Y-89775000I250000J0D01*
G01*
X91150000Y-89775000D01*
G75*
G02*
X91400000Y-90025000I0J-250000D01*
G01*
X91400000Y-90850000D01*
G75*
G02*
X91150000Y-91100000I-250000J0D01*
G01*
G37*
G36*
G01*
X84015076Y-112186827D02*
X84686827Y-111515076D01*
G75*
G02*
X85040381Y-111515076I176777J-176777D01*
G01*
X85517678Y-111992373D01*
G75*
G02*
X85517678Y-112345927I-176777J-176777D01*
G01*
X84845927Y-113017678D01*
G75*
G02*
X84492373Y-113017678I-176777J176777D01*
G01*
X84015076Y-112540381D01*
G75*
G02*
X84015076Y-112186827I176777J176777D01*
G01*
G37*
G36*
G01*
X85482322Y-113654073D02*
X86154073Y-112982322D01*
G75*
G02*
X86507627Y-112982322I176777J-176777D01*
G01*
X86984924Y-113459619D01*
G75*
G02*
X86984924Y-113813173I-176777J-176777D01*
G01*
X86313173Y-114484924D01*
G75*
G02*
X85959619Y-114484924I-176777J176777D01*
G01*
X85482322Y-114007627D01*
G75*
G02*
X85482322Y-113654073I176777J176777D01*
G01*
G37*
G36*
G01*
X102600000Y-118550000D02*
X102600000Y-119450000D01*
G75*
G02*
X102350000Y-119700000I-250000J0D01*
G01*
X101650000Y-119700000D01*
G75*
G02*
X101400000Y-119450000I0J250000D01*
G01*
X101400000Y-118550000D01*
G75*
G02*
X101650000Y-118300000I250000J0D01*
G01*
X102350000Y-118300000D01*
G75*
G02*
X102600000Y-118550000I0J-250000D01*
G01*
G37*
G36*
G01*
X100600000Y-118550000D02*
X100600000Y-119450000D01*
G75*
G02*
X100350000Y-119700000I-250000J0D01*
G01*
X99650000Y-119700000D01*
G75*
G02*
X99400000Y-119450000I0J250000D01*
G01*
X99400000Y-118550000D01*
G75*
G02*
X99650000Y-118300000I250000J0D01*
G01*
X100350000Y-118300000D01*
G75*
G02*
X100600000Y-118550000I0J-250000D01*
G01*
G37*
G36*
G01*
X100475000Y-110125000D02*
X99525000Y-110125000D01*
G75*
G02*
X99275000Y-109875000I0J250000D01*
G01*
X99275000Y-109200000D01*
G75*
G02*
X99525000Y-108950000I250000J0D01*
G01*
X100475000Y-108950000D01*
G75*
G02*
X100725000Y-109200000I0J-250000D01*
G01*
X100725000Y-109875000D01*
G75*
G02*
X100475000Y-110125000I-250000J0D01*
G01*
G37*
G36*
G01*
X100475000Y-108050000D02*
X99525000Y-108050000D01*
G75*
G02*
X99275000Y-107800000I0J250000D01*
G01*
X99275000Y-107125000D01*
G75*
G02*
X99525000Y-106875000I250000J0D01*
G01*
X100475000Y-106875000D01*
G75*
G02*
X100725000Y-107125000I0J-250000D01*
G01*
X100725000Y-107800000D01*
G75*
G02*
X100475000Y-108050000I-250000J0D01*
G01*
G37*
M02*
