G04 #@! TF.GenerationSoftware,KiCad,Pcbnew,6.0.0-d3dd2cf0fa~116~ubuntu21.10.1*
G04 #@! TF.CreationDate,2022-02-03T21:45:13+00:00*
G04 #@! TF.ProjectId,pcb-adr1399-vref,7063622d-6164-4723-9133-39392d767265,rev?*
G04 #@! TF.SameCoordinates,Original*
G04 #@! TF.FileFunction,Legend,Top*
G04 #@! TF.FilePolarity,Positive*
%FSLAX46Y46*%
G04 Gerber Fmt 4.6, Leading zero omitted, Abs format (unit mm)*
G04 Created by KiCad (PCBNEW 6.0.0-d3dd2cf0fa~116~ubuntu21.10.1) date 2022-02-03 21:45:13*
%MOMM*%
%LPD*%
G01*
G04 APERTURE LIST*
%ADD10C,0.150000*%
%ADD11C,0.120000*%
%ADD12C,2.800000*%
%ADD13O,1.600000X1.200000*%
%ADD14C,1.200000*%
G04 APERTURE END LIST*
D10*
X76666666Y-99952380D02*
X76666666Y-100666666D01*
X76619047Y-100809523D01*
X76523809Y-100904761D01*
X76380952Y-100952380D01*
X76285714Y-100952380D01*
X77666666Y-100952380D02*
X77095238Y-100952380D01*
X77380952Y-100952380D02*
X77380952Y-99952380D01*
X77285714Y-100095238D01*
X77190476Y-100190476D01*
X77095238Y-100238095D01*
X98802380Y-112666666D02*
X98326190Y-113000000D01*
X98802380Y-113238095D02*
X97802380Y-113238095D01*
X97802380Y-112857142D01*
X97850000Y-112761904D01*
X97897619Y-112714285D01*
X97992857Y-112666666D01*
X98135714Y-112666666D01*
X98230952Y-112714285D01*
X98278571Y-112761904D01*
X98326190Y-112857142D01*
X98326190Y-113238095D01*
X97897619Y-112285714D02*
X97850000Y-112238095D01*
X97802380Y-112142857D01*
X97802380Y-111904761D01*
X97850000Y-111809523D01*
X97897619Y-111761904D01*
X97992857Y-111714285D01*
X98088095Y-111714285D01*
X98230952Y-111761904D01*
X98802380Y-112333333D01*
X98802380Y-111714285D01*
X105333333Y-118677142D02*
X105285714Y-118724761D01*
X105142857Y-118772380D01*
X105047619Y-118772380D01*
X104904761Y-118724761D01*
X104809523Y-118629523D01*
X104761904Y-118534285D01*
X104714285Y-118343809D01*
X104714285Y-118200952D01*
X104761904Y-118010476D01*
X104809523Y-117915238D01*
X104904761Y-117820000D01*
X105047619Y-117772380D01*
X105142857Y-117772380D01*
X105285714Y-117820000D01*
X105333333Y-117867619D01*
X106190476Y-118105714D02*
X106190476Y-118772380D01*
X105952380Y-117724761D02*
X105714285Y-118439047D01*
X106333333Y-118439047D01*
X113166666Y-91142380D02*
X113166666Y-91856666D01*
X113119047Y-91999523D01*
X113023809Y-92094761D01*
X112880952Y-92142380D01*
X112785714Y-92142380D01*
X113547619Y-91142380D02*
X114166666Y-91142380D01*
X113833333Y-91523333D01*
X113976190Y-91523333D01*
X114071428Y-91570952D01*
X114119047Y-91618571D01*
X114166666Y-91713809D01*
X114166666Y-91951904D01*
X114119047Y-92047142D01*
X114071428Y-92094761D01*
X113976190Y-92142380D01*
X113690476Y-92142380D01*
X113595238Y-92094761D01*
X113547619Y-92047142D01*
X101333333Y-115302380D02*
X101000000Y-114826190D01*
X100761904Y-115302380D02*
X100761904Y-114302380D01*
X101142857Y-114302380D01*
X101238095Y-114350000D01*
X101285714Y-114397619D01*
X101333333Y-114492857D01*
X101333333Y-114635714D01*
X101285714Y-114730952D01*
X101238095Y-114778571D01*
X101142857Y-114826190D01*
X100761904Y-114826190D01*
X101666666Y-114302380D02*
X102285714Y-114302380D01*
X101952380Y-114683333D01*
X102095238Y-114683333D01*
X102190476Y-114730952D01*
X102238095Y-114778571D01*
X102285714Y-114873809D01*
X102285714Y-115111904D01*
X102238095Y-115207142D01*
X102190476Y-115254761D01*
X102095238Y-115302380D01*
X101809523Y-115302380D01*
X101714285Y-115254761D01*
X101666666Y-115207142D01*
X107852380Y-111261904D02*
X108661904Y-111261904D01*
X108757142Y-111214285D01*
X108804761Y-111166666D01*
X108852380Y-111071428D01*
X108852380Y-110880952D01*
X108804761Y-110785714D01*
X108757142Y-110738095D01*
X108661904Y-110690476D01*
X107852380Y-110690476D01*
X107947619Y-110261904D02*
X107900000Y-110214285D01*
X107852380Y-110119047D01*
X107852380Y-109880952D01*
X107900000Y-109785714D01*
X107947619Y-109738095D01*
X108042857Y-109690476D01*
X108138095Y-109690476D01*
X108280952Y-109738095D01*
X108852380Y-110309523D01*
X108852380Y-109690476D01*
X108833333Y-103302380D02*
X108500000Y-102826190D01*
X108261904Y-103302380D02*
X108261904Y-102302380D01*
X108642857Y-102302380D01*
X108738095Y-102350000D01*
X108785714Y-102397619D01*
X108833333Y-102492857D01*
X108833333Y-102635714D01*
X108785714Y-102730952D01*
X108738095Y-102778571D01*
X108642857Y-102826190D01*
X108261904Y-102826190D01*
X109738095Y-102302380D02*
X109261904Y-102302380D01*
X109214285Y-102778571D01*
X109261904Y-102730952D01*
X109357142Y-102683333D01*
X109595238Y-102683333D01*
X109690476Y-102730952D01*
X109738095Y-102778571D01*
X109785714Y-102873809D01*
X109785714Y-103111904D01*
X109738095Y-103207142D01*
X109690476Y-103254761D01*
X109595238Y-103302380D01*
X109357142Y-103302380D01*
X109261904Y-103254761D01*
X109214285Y-103207142D01*
X113166666Y-116642380D02*
X113166666Y-117356666D01*
X113119047Y-117499523D01*
X113023809Y-117594761D01*
X112880952Y-117642380D01*
X112785714Y-117642380D01*
X113595238Y-116737619D02*
X113642857Y-116690000D01*
X113738095Y-116642380D01*
X113976190Y-116642380D01*
X114071428Y-116690000D01*
X114119047Y-116737619D01*
X114166666Y-116832857D01*
X114166666Y-116928095D01*
X114119047Y-117070952D01*
X113547619Y-117642380D01*
X114166666Y-117642380D01*
X93976095Y-109929380D02*
X93976095Y-110738904D01*
X94023714Y-110834142D01*
X94071333Y-110881761D01*
X94166571Y-110929380D01*
X94357047Y-110929380D01*
X94452285Y-110881761D01*
X94499904Y-110834142D01*
X94547523Y-110738904D01*
X94547523Y-109929380D01*
X95547523Y-110929380D02*
X94976095Y-110929380D01*
X95261809Y-110929380D02*
X95261809Y-109929380D01*
X95166571Y-110072238D01*
X95071333Y-110167476D01*
X94976095Y-110215095D01*
X103833333Y-103102380D02*
X103500000Y-102626190D01*
X103261904Y-103102380D02*
X103261904Y-102102380D01*
X103642857Y-102102380D01*
X103738095Y-102150000D01*
X103785714Y-102197619D01*
X103833333Y-102292857D01*
X103833333Y-102435714D01*
X103785714Y-102530952D01*
X103738095Y-102578571D01*
X103642857Y-102626190D01*
X103261904Y-102626190D01*
X104690476Y-102435714D02*
X104690476Y-103102380D01*
X104452380Y-102054761D02*
X104214285Y-102769047D01*
X104833333Y-102769047D01*
X89007142Y-92166666D02*
X89054761Y-92214285D01*
X89102380Y-92357142D01*
X89102380Y-92452380D01*
X89054761Y-92595238D01*
X88959523Y-92690476D01*
X88864285Y-92738095D01*
X88673809Y-92785714D01*
X88530952Y-92785714D01*
X88340476Y-92738095D01*
X88245238Y-92690476D01*
X88150000Y-92595238D01*
X88102380Y-92452380D01*
X88102380Y-92357142D01*
X88150000Y-92214285D01*
X88197619Y-92166666D01*
X89102380Y-91214285D02*
X89102380Y-91785714D01*
X89102380Y-91500000D02*
X88102380Y-91500000D01*
X88245238Y-91595238D01*
X88340476Y-91690476D01*
X88388095Y-91785714D01*
X84558328Y-114177373D02*
X84625671Y-114177373D01*
X84760358Y-114244717D01*
X84827702Y-114312061D01*
X84895045Y-114446748D01*
X84895045Y-114581435D01*
X84861374Y-114682450D01*
X84760358Y-114850809D01*
X84659343Y-114951824D01*
X84490984Y-115052839D01*
X84389969Y-115086511D01*
X84255282Y-115086511D01*
X84120595Y-115019167D01*
X84053251Y-114951824D01*
X83985908Y-114817137D01*
X83985908Y-114749793D01*
X83716534Y-114480419D02*
X83649190Y-114480419D01*
X83548175Y-114446748D01*
X83379816Y-114278389D01*
X83346145Y-114177373D01*
X83346145Y-114110030D01*
X83379816Y-114009015D01*
X83447160Y-113941671D01*
X83581847Y-113874328D01*
X84389969Y-113874328D01*
X83952236Y-113436595D01*
X101333333Y-121102380D02*
X101000000Y-120626190D01*
X100761904Y-121102380D02*
X100761904Y-120102380D01*
X101142857Y-120102380D01*
X101238095Y-120150000D01*
X101285714Y-120197619D01*
X101333333Y-120292857D01*
X101333333Y-120435714D01*
X101285714Y-120530952D01*
X101238095Y-120578571D01*
X101142857Y-120626190D01*
X100761904Y-120626190D01*
X102285714Y-121102380D02*
X101714285Y-121102380D01*
X102000000Y-121102380D02*
X102000000Y-120102380D01*
X101904761Y-120245238D01*
X101809523Y-120340476D01*
X101714285Y-120388095D01*
X98677142Y-108666666D02*
X98724761Y-108714285D01*
X98772380Y-108857142D01*
X98772380Y-108952380D01*
X98724761Y-109095238D01*
X98629523Y-109190476D01*
X98534285Y-109238095D01*
X98343809Y-109285714D01*
X98200952Y-109285714D01*
X98010476Y-109238095D01*
X97915238Y-109190476D01*
X97820000Y-109095238D01*
X97772380Y-108952380D01*
X97772380Y-108857142D01*
X97820000Y-108714285D01*
X97867619Y-108666666D01*
X97772380Y-108333333D02*
X97772380Y-107714285D01*
X98153333Y-108047619D01*
X98153333Y-107904761D01*
X98200952Y-107809523D01*
X98248571Y-107761904D01*
X98343809Y-107714285D01*
X98581904Y-107714285D01*
X98677142Y-107761904D01*
X98724761Y-107809523D01*
X98772380Y-107904761D01*
X98772380Y-108190476D01*
X98724761Y-108285714D01*
X98677142Y-108333333D01*
D11*
X72300000Y-99000000D02*
X72300000Y-90000000D01*
X81000000Y-99000000D02*
X72300000Y-99000000D01*
X86500000Y-99000000D02*
X85000000Y-99000000D01*
X72300000Y-90000000D02*
X86500000Y-90000000D01*
X86500000Y-90000000D02*
X86500000Y-92000000D01*
X86500000Y-97000000D02*
X86500000Y-99000000D01*
X100735000Y-112727064D02*
X100735000Y-112272936D01*
X99265000Y-112727064D02*
X99265000Y-112272936D01*
X105738748Y-115765000D02*
X106261252Y-115765000D01*
X105738748Y-117235000D02*
X106261252Y-117235000D01*
G36*
X104879205Y-95325144D02*
G01*
X104917524Y-95329054D01*
X104917524Y-95732576D01*
X104866692Y-95752909D01*
X104804913Y-95760729D01*
X104744893Y-95746848D01*
X104702468Y-95705206D01*
X104677248Y-95638148D01*
X104668841Y-95548020D01*
X104678812Y-95458283D01*
X104708724Y-95386142D01*
X104758578Y-95338634D01*
X104828373Y-95322798D01*
X104879205Y-95325144D01*
G37*
G36*
X92196213Y-92312170D02*
G01*
X108803787Y-92312170D01*
X108803787Y-96687830D01*
X92196213Y-96687830D01*
X92196213Y-95493278D01*
X92841575Y-95493278D01*
X92847734Y-95597971D01*
X92866209Y-95697777D01*
X92897001Y-95792694D01*
X92940110Y-95882724D01*
X92996513Y-95966694D01*
X93067188Y-96043429D01*
X93152135Y-96112931D01*
X93251354Y-96175200D01*
X93340504Y-96056333D01*
X93247617Y-95991946D01*
X93169155Y-95915569D01*
X93105116Y-95827201D01*
X93057760Y-95727189D01*
X93029347Y-95615882D01*
X93023621Y-95541764D01*
X93545393Y-95541764D01*
X93551454Y-95620357D01*
X93569636Y-95693475D01*
X93600721Y-95759165D01*
X93645492Y-95815471D01*
X93704339Y-95861610D01*
X93777653Y-95896801D01*
X93866217Y-95919088D01*
X93970812Y-95926517D01*
X94043931Y-95923976D01*
X94106883Y-95916351D01*
X94205418Y-95890544D01*
X94177265Y-95732576D01*
X94087333Y-95752909D01*
X93992708Y-95759165D01*
X93875210Y-95744698D01*
X93797986Y-95701296D01*
X93755170Y-95632478D01*
X93740898Y-95541764D01*
X93753410Y-95454177D01*
X93794075Y-95384578D01*
X93868367Y-95339221D01*
X93983324Y-95322798D01*
X94081077Y-95331400D01*
X94150676Y-95350951D01*
X94192906Y-95196111D01*
X94084987Y-95164830D01*
X93966120Y-95155446D01*
X93864262Y-95163071D01*
X93777653Y-95185945D01*
X93705512Y-95221918D01*
X93647056Y-95268839D01*
X93602090Y-95325731D01*
X93570418Y-95391616D01*
X93551649Y-95464344D01*
X93545393Y-95541764D01*
X93023621Y-95541764D01*
X93019876Y-95493278D01*
X93029695Y-95369198D01*
X93059151Y-95255544D01*
X93108244Y-95152318D01*
X93174021Y-95060908D01*
X93253526Y-94982706D01*
X93346760Y-94917712D01*
X94391539Y-94917712D01*
X94484773Y-94982706D01*
X94564278Y-95060908D01*
X94630055Y-95152318D01*
X94679148Y-95255544D01*
X94708604Y-95369198D01*
X94718423Y-95493278D01*
X94708952Y-95615882D01*
X94680538Y-95727189D01*
X94633183Y-95827201D01*
X94569144Y-95915569D01*
X94490681Y-95991946D01*
X94397795Y-96056333D01*
X94486945Y-96175200D01*
X94586164Y-96112931D01*
X94671111Y-96043429D01*
X94741786Y-95966694D01*
X94798189Y-95882724D01*
X94841298Y-95792694D01*
X94872090Y-95697777D01*
X94890565Y-95597971D01*
X94896723Y-95493278D01*
X94892587Y-95424461D01*
X95864864Y-95424461D01*
X95871902Y-95541959D01*
X95893016Y-95644208D01*
X95927034Y-95731012D01*
X95972782Y-95802176D01*
X96029674Y-95857700D01*
X96097123Y-95897583D01*
X96174348Y-95921630D01*
X96260566Y-95929645D01*
X96356168Y-95925735D01*
X96436520Y-95914005D01*
X96543657Y-95885852D01*
X96543657Y-95583993D01*
X96696933Y-95583993D01*
X96700061Y-95655939D01*
X96709445Y-95721628D01*
X96755584Y-95830329D01*
X96847080Y-95901493D01*
X96913161Y-95920261D01*
X96995664Y-95926517D01*
X97081491Y-95922998D01*
X97160670Y-95912441D01*
X97289704Y-95884288D01*
X97289704Y-95865520D01*
X97471132Y-95865520D01*
X97579051Y-95904621D01*
X97653343Y-95921043D01*
X97741711Y-95926517D01*
X97828124Y-95922216D01*
X97899679Y-95909313D01*
X98003688Y-95862392D01*
X98060775Y-95792010D01*
X98077979Y-95705988D01*
X98054519Y-95608235D01*
X97994303Y-95542546D01*
X97912191Y-95499535D01*
X97824605Y-95468254D01*
X97769082Y-95448703D01*
X97723724Y-95427589D01*
X97692444Y-95403346D01*
X97680713Y-95372847D01*
X97706520Y-95334528D01*
X97805837Y-95316542D01*
X97932524Y-95334528D01*
X98015418Y-95360335D01*
X98020276Y-95333746D01*
X98224999Y-95333746D01*
X98392351Y-95333746D01*
X98392351Y-95635606D01*
X98397043Y-95719087D01*
X98411120Y-95784972D01*
X98465861Y-95873340D01*
X98553447Y-95915569D01*
X98672314Y-95926517D01*
X98791963Y-95917133D01*
X98906920Y-95885852D01*
X98880332Y-95720064D01*
X98831064Y-95740397D01*
X98787271Y-95752127D01*
X98743478Y-95757601D01*
X98694211Y-95759165D01*
X98648854Y-95754473D01*
X98614445Y-95735705D01*
X98592548Y-95696604D01*
X98591058Y-95684091D01*
X99019531Y-95684091D01*
X99041428Y-95797484D01*
X99103989Y-95872558D01*
X99201742Y-95914005D01*
X99329211Y-95926517D01*
X99427354Y-95923389D01*
X99515332Y-95914005D01*
X99640455Y-95892108D01*
X99640455Y-95454177D01*
X99624814Y-95329836D01*
X99573201Y-95235994D01*
X99477013Y-95176560D01*
X99466962Y-95174214D01*
X99754630Y-95174214D01*
X99787914Y-95283062D01*
X99822079Y-95387510D01*
X99857123Y-95487560D01*
X99893047Y-95583211D01*
X99941272Y-95702512D01*
X99988975Y-95811213D01*
X100036157Y-95909313D01*
X100197253Y-95909313D01*
X101381231Y-95909313D01*
X101573607Y-95909313D01*
X101573607Y-95684091D01*
X102147610Y-95684091D01*
X102169506Y-95797484D01*
X102232068Y-95872558D01*
X102329821Y-95914005D01*
X102457290Y-95926517D01*
X102555433Y-95923389D01*
X102643410Y-95914005D01*
X102768534Y-95892108D01*
X102768534Y-95454177D01*
X102752893Y-95329836D01*
X102701280Y-95235994D01*
X102605091Y-95176560D01*
X102537251Y-95160725D01*
X102454162Y-95155446D01*
X102384953Y-95157987D01*
X102318090Y-95165612D01*
X102216428Y-95188291D01*
X102243016Y-95343131D01*
X102325128Y-95324362D01*
X102430701Y-95316542D01*
X102502647Y-95325731D01*
X102549568Y-95353297D01*
X102583977Y-95444793D01*
X102583977Y-95468254D01*
X102521806Y-95458870D01*
X102451034Y-95455741D01*
X102336859Y-95467472D01*
X102239888Y-95505791D01*
X102172635Y-95576173D01*
X102147610Y-95684091D01*
X101573607Y-95684091D01*
X101573607Y-95582429D01*
X101642425Y-95582429D01*
X101758077Y-95573826D01*
X101854787Y-95548020D01*
X101932555Y-95505009D01*
X101989468Y-95442708D01*
X102023616Y-95359032D01*
X102034999Y-95253980D01*
X102023703Y-95149972D01*
X101989816Y-95067338D01*
X101933337Y-95006080D01*
X101909051Y-94992786D01*
X102917117Y-94992786D01*
X103120442Y-94992786D01*
X103120442Y-95616838D01*
X103135692Y-95750367D01*
X103181440Y-95847533D01*
X103260424Y-95906771D01*
X103375381Y-95926517D01*
X103462185Y-95920261D01*
X103510012Y-95909313D01*
X103688189Y-95909313D01*
X103844593Y-95909313D01*
X103844593Y-95332182D01*
X103870399Y-95327490D01*
X103893078Y-95325926D01*
X103940781Y-95355643D01*
X103955640Y-95460434D01*
X103955640Y-95629350D01*
X104112043Y-95629350D01*
X104112043Y-95482330D01*
X104108915Y-95402564D01*
X104101095Y-95336874D01*
X104129248Y-95328272D01*
X104158965Y-95325926D01*
X104183207Y-95330618D01*
X104203540Y-95349387D01*
X104217616Y-95390052D01*
X104223090Y-95460434D01*
X104223090Y-95909313D01*
X104379494Y-95909313D01*
X104379494Y-95541764D01*
X104473337Y-95541764D01*
X104478029Y-95625244D01*
X104492105Y-95700514D01*
X104515370Y-95766399D01*
X104547628Y-95821727D01*
X104639125Y-95899147D01*
X104698167Y-95919675D01*
X104765812Y-95926517D01*
X104841668Y-95916351D01*
X104917524Y-95888980D01*
X104917524Y-96167379D01*
X105109901Y-96167379D01*
X105109901Y-95197675D01*
X105051249Y-95182817D01*
X105002322Y-95174214D01*
X105228768Y-95174214D01*
X105262052Y-95283062D01*
X105296217Y-95387510D01*
X105331261Y-95487560D01*
X105367185Y-95583211D01*
X105415410Y-95702512D01*
X105463113Y-95811213D01*
X105510295Y-95909313D01*
X105671391Y-95909313D01*
X105719355Y-95811213D01*
X105769404Y-95702512D01*
X105821539Y-95583211D01*
X105860542Y-95487560D01*
X105897785Y-95387510D01*
X105916051Y-95333746D01*
X106045196Y-95333746D01*
X106248521Y-95333746D01*
X106248521Y-95604325D01*
X106251649Y-95676662D01*
X106261034Y-95740397D01*
X106304045Y-95841277D01*
X106385375Y-95904621D01*
X106511280Y-95926517D01*
X106607468Y-95916351D01*
X106719297Y-95878032D01*
X106717275Y-95865520D01*
X106855369Y-95865520D01*
X106963287Y-95904621D01*
X107037579Y-95921043D01*
X107125947Y-95926517D01*
X107212361Y-95922216D01*
X107283915Y-95909313D01*
X107387924Y-95862392D01*
X107445011Y-95792010D01*
X107462216Y-95705988D01*
X107438755Y-95608235D01*
X107378540Y-95542546D01*
X107296428Y-95499535D01*
X107208841Y-95468254D01*
X107153318Y-95448703D01*
X107107961Y-95427589D01*
X107076680Y-95403346D01*
X107064950Y-95372847D01*
X107090756Y-95334528D01*
X107190073Y-95316542D01*
X107316760Y-95334528D01*
X107399654Y-95360335D01*
X107404512Y-95333746D01*
X107609236Y-95333746D01*
X107776588Y-95333746D01*
X107776588Y-95635606D01*
X107781280Y-95719087D01*
X107795356Y-95784972D01*
X107850098Y-95873340D01*
X107937684Y-95915569D01*
X108056551Y-95926517D01*
X108176200Y-95917133D01*
X108291157Y-95885852D01*
X108264568Y-95720064D01*
X108215301Y-95740397D01*
X108171508Y-95752127D01*
X108127715Y-95757601D01*
X108078447Y-95759165D01*
X108033090Y-95754473D01*
X107998681Y-95735705D01*
X107976785Y-95696604D01*
X107968965Y-95630914D01*
X107968965Y-95333746D01*
X108277080Y-95333746D01*
X108277080Y-95174214D01*
X107968965Y-95174214D01*
X107968965Y-94958377D01*
X107776588Y-94989658D01*
X107776588Y-95174214D01*
X107609236Y-95174214D01*
X107609236Y-95333746D01*
X107404512Y-95333746D01*
X107429371Y-95197675D01*
X107322234Y-95166394D01*
X107257913Y-95158183D01*
X107188509Y-95155446D01*
X107111480Y-95159943D01*
X107046181Y-95173432D01*
X106948429Y-95223482D01*
X106892123Y-95296991D01*
X106874137Y-95385360D01*
X106897598Y-95481548D01*
X106957031Y-95544892D01*
X107036797Y-95586339D01*
X107122819Y-95615273D01*
X107179907Y-95634042D01*
X107228392Y-95653592D01*
X107261237Y-95677835D01*
X107272967Y-95712244D01*
X107235430Y-95753691D01*
X107127511Y-95763857D01*
X107001606Y-95745089D01*
X106885085Y-95704424D01*
X106855369Y-95865520D01*
X106717275Y-95865520D01*
X106694273Y-95723192D01*
X106609814Y-95752127D01*
X106545689Y-95759165D01*
X106465141Y-95727102D01*
X106440898Y-95629350D01*
X106440898Y-95174214D01*
X106045196Y-95174214D01*
X106045196Y-95333746D01*
X105916051Y-95333746D01*
X105933270Y-95283062D01*
X105966994Y-95174214D01*
X105771489Y-95174214D01*
X105734734Y-95300902D01*
X105711665Y-95368351D01*
X105687813Y-95436191D01*
X105663375Y-95503249D01*
X105638546Y-95568352D01*
X105593189Y-95685655D01*
X105550178Y-95568352D01*
X105527695Y-95503249D01*
X105505603Y-95436191D01*
X105484293Y-95368351D01*
X105464156Y-95300902D01*
X105430529Y-95174214D01*
X105228768Y-95174214D01*
X105002322Y-95174214D01*
X104980085Y-95170304D01*
X104902665Y-95161702D01*
X104826809Y-95158574D01*
X104746848Y-95165612D01*
X104675880Y-95186727D01*
X104614882Y-95220354D01*
X104564833Y-95264929D01*
X104525536Y-95320257D01*
X104496797Y-95386142D01*
X104479202Y-95460629D01*
X104473337Y-95541764D01*
X104379494Y-95541764D01*
X104379494Y-95469818D01*
X104377539Y-95398068D01*
X104371674Y-95336092D01*
X104341175Y-95241468D01*
X104279396Y-95185163D01*
X104179297Y-95166394D01*
X104104223Y-95179689D01*
X104041662Y-95210187D01*
X103986138Y-95176560D01*
X103913410Y-95166394D01*
X103808620Y-95175778D01*
X103688189Y-95202367D01*
X103688189Y-95909313D01*
X103510012Y-95909313D01*
X103527093Y-95905403D01*
X103570104Y-95888980D01*
X103591218Y-95878032D01*
X103566194Y-95723192D01*
X103514580Y-95743525D01*
X103417610Y-95759165D01*
X103342536Y-95732576D01*
X103312819Y-95630914D01*
X103312819Y-94963069D01*
X106190652Y-94963069D01*
X106225843Y-95052219D01*
X106311083Y-95085064D01*
X106397105Y-95052219D01*
X106433078Y-94963069D01*
X106397105Y-94872355D01*
X106311083Y-94839510D01*
X106225843Y-94872355D01*
X106190652Y-94963069D01*
X103312819Y-94963069D01*
X103312819Y-94833254D01*
X102917117Y-94833254D01*
X102917117Y-94992786D01*
X101909051Y-94992786D01*
X101856351Y-94963938D01*
X101760945Y-94938653D01*
X101647117Y-94930224D01*
X101586120Y-94931788D01*
X101515738Y-94935698D01*
X101444574Y-94942737D01*
X101381231Y-94953685D01*
X101381231Y-95909313D01*
X100197253Y-95909313D01*
X100245217Y-95811213D01*
X100295266Y-95702512D01*
X100347401Y-95583211D01*
X100386404Y-95487560D01*
X100423648Y-95387510D01*
X100459132Y-95283062D01*
X100492856Y-95174214D01*
X100297351Y-95174214D01*
X100260596Y-95300902D01*
X100237527Y-95368351D01*
X100213675Y-95436191D01*
X100189237Y-95503249D01*
X100164408Y-95568352D01*
X100119051Y-95685655D01*
X100076040Y-95568352D01*
X100053557Y-95503249D01*
X100031465Y-95436191D01*
X100010155Y-95368351D01*
X99990018Y-95300902D01*
X99956391Y-95174214D01*
X99754630Y-95174214D01*
X99466962Y-95174214D01*
X99409172Y-95160725D01*
X99326083Y-95155446D01*
X99256874Y-95157987D01*
X99190011Y-95165612D01*
X99088349Y-95188291D01*
X99114938Y-95343131D01*
X99197050Y-95324362D01*
X99302622Y-95316542D01*
X99374568Y-95325731D01*
X99421489Y-95353297D01*
X99455898Y-95444793D01*
X99455898Y-95468254D01*
X99393728Y-95458870D01*
X99322955Y-95455741D01*
X99208780Y-95467472D01*
X99111809Y-95505791D01*
X99044556Y-95576173D01*
X99019531Y-95684091D01*
X98591058Y-95684091D01*
X98584728Y-95630914D01*
X98584728Y-95333746D01*
X98892844Y-95333746D01*
X98892844Y-95174214D01*
X98584728Y-95174214D01*
X98584728Y-94958377D01*
X98392351Y-94989658D01*
X98392351Y-95174214D01*
X98224999Y-95174214D01*
X98224999Y-95333746D01*
X98020276Y-95333746D01*
X98045135Y-95197675D01*
X97937998Y-95166394D01*
X97873677Y-95158183D01*
X97804273Y-95155446D01*
X97727244Y-95159943D01*
X97661945Y-95173432D01*
X97564192Y-95223482D01*
X97507887Y-95296991D01*
X97489901Y-95385360D01*
X97513361Y-95481548D01*
X97572795Y-95544892D01*
X97652561Y-95586339D01*
X97738583Y-95615273D01*
X97795670Y-95634042D01*
X97844156Y-95653592D01*
X97877000Y-95677835D01*
X97888731Y-95712244D01*
X97851194Y-95753691D01*
X97743275Y-95763857D01*
X97617370Y-95745089D01*
X97500849Y-95704424D01*
X97471132Y-95865520D01*
X97289704Y-95865520D01*
X97289704Y-95174214D01*
X97095763Y-95174214D01*
X97095763Y-95751345D01*
X97008176Y-95759165D01*
X96913552Y-95709898D01*
X96895370Y-95647532D01*
X96889309Y-95558968D01*
X96889309Y-95174214D01*
X96696933Y-95174214D01*
X96696933Y-95583993D01*
X96543657Y-95583993D01*
X96543657Y-95402564D01*
X96351280Y-95402564D01*
X96351280Y-95756037D01*
X96313743Y-95760729D01*
X96276206Y-95762293D01*
X96182755Y-95741765D01*
X96115110Y-95680181D01*
X96084698Y-95615273D01*
X96066451Y-95530033D01*
X96060369Y-95424461D01*
X96063692Y-95352710D01*
X96073663Y-95287607D01*
X96117456Y-95181253D01*
X96194876Y-95111653D01*
X96310615Y-95086628D01*
X96413841Y-95103833D01*
X96498300Y-95142934D01*
X96548349Y-94989658D01*
X96516286Y-94970889D01*
X96462327Y-94947429D01*
X96384907Y-94927878D01*
X96284026Y-94919276D01*
X96199177Y-94927292D01*
X96119802Y-94951339D01*
X96048247Y-94991417D01*
X95986859Y-95047527D01*
X95936418Y-95119277D01*
X95897708Y-95206277D01*
X95873075Y-95308135D01*
X95864864Y-95424461D01*
X94892587Y-95424461D01*
X94890369Y-95387559D01*
X94871308Y-95286239D01*
X94839538Y-95189317D01*
X94795061Y-95096794D01*
X94737289Y-95010430D01*
X94665636Y-94931984D01*
X94580103Y-94861455D01*
X94480689Y-94798845D01*
X94391539Y-94917712D01*
X93346760Y-94917712D01*
X93257610Y-94798845D01*
X93158196Y-94861455D01*
X93072662Y-94931984D01*
X93001010Y-95010430D01*
X92943238Y-95096794D01*
X92898761Y-95189317D01*
X92866991Y-95286239D01*
X92847929Y-95387559D01*
X92841575Y-95493278D01*
X92196213Y-95493278D01*
X92196213Y-93924938D01*
X92708843Y-93924938D01*
X92912043Y-93924938D01*
X92956493Y-93697925D01*
X93218431Y-93697925D01*
X93264468Y-93924938D01*
X93474018Y-93924938D01*
X93471405Y-93913825D01*
X93574031Y-93913825D01*
X93681187Y-93932082D01*
X93783581Y-93937638D01*
X93879426Y-93930693D01*
X93903597Y-93924938D01*
X94367781Y-93924938D01*
X94563043Y-93924938D01*
X94563043Y-93562988D01*
X94664643Y-93562988D01*
X94718420Y-93652880D01*
X94768625Y-93741582D01*
X94814067Y-93831474D01*
X94853556Y-93924938D01*
X95058343Y-93924938D01*
X95013100Y-93820957D01*
X94958331Y-93711419D01*
X94899593Y-93606644D01*
X94842443Y-93515363D01*
X94911896Y-93470516D01*
X94958331Y-93409000D01*
X94984525Y-93335182D01*
X94993256Y-93253425D01*
X94986707Y-93176233D01*
X94978087Y-93147063D01*
X95152006Y-93147063D01*
X95215506Y-93308988D01*
X95312343Y-93270094D01*
X95413943Y-93213738D01*
X95413943Y-93763013D01*
X95207568Y-93763013D01*
X95207568Y-93924938D01*
X95804468Y-93924938D01*
X95804468Y-93891600D01*
X95934643Y-93891600D01*
X95983856Y-93909063D01*
X96052912Y-93926525D01*
X96130700Y-93940019D01*
X96207693Y-93945575D01*
X96299371Y-93939821D01*
X96377556Y-93922557D01*
X96442643Y-93894775D01*
X96495031Y-93857469D01*
X96563293Y-93758250D01*
X96585518Y-93632838D01*
X96575001Y-93553066D01*
X96543450Y-93485200D01*
X96492848Y-93430829D01*
X96425181Y-93391538D01*
X96514081Y-93308988D01*
X96530984Y-93251838D01*
X96734743Y-93251838D01*
X96752206Y-93373282D01*
X96807768Y-93472500D01*
X96906193Y-93539969D01*
X96972868Y-93558424D01*
X97052243Y-93564575D01*
X97163368Y-93537588D01*
X97107409Y-93636608D01*
X97022081Y-93705069D01*
X96915321Y-93745352D01*
X96795068Y-93759838D01*
X96801418Y-93928113D01*
X96928617Y-93918389D01*
X97043512Y-93889219D01*
X97144318Y-93841396D01*
X97229250Y-93775713D01*
X97297314Y-93692171D01*
X97347518Y-93590769D01*
X97378475Y-93472302D01*
X97388793Y-93337563D01*
X97382009Y-93251838D01*
X97528493Y-93251838D01*
X97545956Y-93373282D01*
X97601518Y-93472500D01*
X97699943Y-93539969D01*
X97766618Y-93558424D01*
X97845993Y-93564575D01*
X97957118Y-93537588D01*
X97901159Y-93636608D01*
X97815831Y-93705069D01*
X97709071Y-93745352D01*
X97588818Y-93759838D01*
X97595168Y-93928113D01*
X97636700Y-93924938D01*
X99130281Y-93924938D01*
X99325543Y-93924938D01*
X99325543Y-93562988D01*
X99427143Y-93562988D01*
X99480920Y-93652880D01*
X99531125Y-93741582D01*
X99576567Y-93831474D01*
X99616056Y-93924938D01*
X99820843Y-93924938D01*
X99775600Y-93820957D01*
X99720831Y-93711419D01*
X99662093Y-93606644D01*
X99631778Y-93558225D01*
X99887518Y-93558225D01*
X99894662Y-93647522D01*
X99916093Y-93724913D01*
X99950820Y-93790596D01*
X99997850Y-93844769D01*
X100056587Y-93887235D01*
X100126437Y-93917794D01*
X100206804Y-93936249D01*
X100297093Y-93942400D01*
X100425681Y-93930494D01*
X100533631Y-93901125D01*
X100506643Y-93734438D01*
X100416950Y-93759838D01*
X100305031Y-93772538D01*
X100218512Y-93762021D01*
X100149456Y-93730469D01*
X100104212Y-93680661D01*
X100089131Y-93615375D01*
X100573318Y-93615375D01*
X100575700Y-93582038D01*
X100576493Y-93542350D01*
X100566968Y-93427433D01*
X100540887Y-93340738D01*
X100689206Y-93340738D01*
X100852718Y-93340738D01*
X100852718Y-93924938D01*
X101049568Y-93924938D01*
X101049568Y-93558225D01*
X101475018Y-93558225D01*
X101482162Y-93647522D01*
X101503593Y-93724913D01*
X101538320Y-93790596D01*
X101585350Y-93844769D01*
X101644087Y-93887235D01*
X101713937Y-93917794D01*
X101794304Y-93936249D01*
X101884593Y-93942400D01*
X102013181Y-93930494D01*
X102033603Y-93924938D01*
X102360843Y-93924938D01*
X102557693Y-93924938D01*
X102557693Y-93558225D01*
X103062518Y-93558225D01*
X103069662Y-93647522D01*
X103091093Y-93724913D01*
X103125820Y-93790596D01*
X103172850Y-93844769D01*
X103231587Y-93887235D01*
X103301437Y-93917794D01*
X103381804Y-93936249D01*
X103472093Y-93942400D01*
X103600681Y-93930494D01*
X103621103Y-93924938D01*
X103907068Y-93924938D01*
X104102331Y-93924938D01*
X104102331Y-93339150D01*
X104147575Y-93334388D01*
X104191231Y-93332800D01*
X104288068Y-93378838D01*
X104305928Y-93439560D01*
X104311881Y-93529650D01*
X104311881Y-93924938D01*
X104507143Y-93924938D01*
X104507143Y-93551875D01*
X104670656Y-93551875D01*
X104676807Y-93631647D01*
X104695262Y-93705863D01*
X104726814Y-93772538D01*
X104772256Y-93829688D01*
X104831985Y-93876519D01*
X104906400Y-93912238D01*
X104996292Y-93934860D01*
X105102456Y-93942400D01*
X105176671Y-93939821D01*
X105240568Y-93932082D01*
X105340581Y-93905888D01*
X105312006Y-93745550D01*
X105220725Y-93766188D01*
X105124681Y-93772538D01*
X105005420Y-93757854D01*
X104927037Y-93713800D01*
X104883579Y-93643950D01*
X104870092Y-93558225D01*
X105443768Y-93558225D01*
X105450912Y-93647522D01*
X105472343Y-93724913D01*
X105507070Y-93790596D01*
X105554100Y-93844769D01*
X105612837Y-93887235D01*
X105682687Y-93917794D01*
X105763054Y-93936249D01*
X105853343Y-93942400D01*
X105981931Y-93930494D01*
X106089881Y-93901125D01*
X106062893Y-93734438D01*
X105973200Y-93759838D01*
X105861281Y-93772538D01*
X105774762Y-93762021D01*
X105705706Y-93730469D01*
X105660462Y-93680661D01*
X105645381Y-93615375D01*
X106129568Y-93615375D01*
X106131950Y-93582038D01*
X106132743Y-93542350D01*
X106123218Y-93427433D01*
X106094643Y-93332448D01*
X106047018Y-93257394D01*
X105981049Y-93203155D01*
X105897440Y-93170611D01*
X105796193Y-93159763D01*
X105730312Y-93166113D01*
X105666018Y-93185163D01*
X105606090Y-93216714D01*
X105553306Y-93260569D01*
X105508856Y-93316727D01*
X105473931Y-93385188D01*
X105451309Y-93465754D01*
X105443768Y-93558225D01*
X104870092Y-93558225D01*
X104869093Y-93551875D01*
X104881793Y-93462975D01*
X104923068Y-93392332D01*
X104998475Y-93346294D01*
X105115156Y-93329625D01*
X105214375Y-93338357D01*
X105285018Y-93358200D01*
X105327881Y-93201038D01*
X105218343Y-93169288D01*
X105097693Y-93159763D01*
X104994307Y-93167502D01*
X104906400Y-93190719D01*
X104833176Y-93227232D01*
X104773843Y-93274857D01*
X104728203Y-93332602D01*
X104696056Y-93399475D01*
X104677006Y-93473294D01*
X104670656Y-93551875D01*
X104507143Y-93551875D01*
X104507143Y-93504250D01*
X104503571Y-93431424D01*
X104492856Y-93365344D01*
X104444437Y-93257394D01*
X104351568Y-93187544D01*
X104285290Y-93169089D01*
X104203931Y-93162938D01*
X104116817Y-93166113D01*
X104036450Y-93175638D01*
X103965607Y-93188735D01*
X103907068Y-93202625D01*
X103907068Y-93924938D01*
X103621103Y-93924938D01*
X103708631Y-93901125D01*
X103681643Y-93734438D01*
X103591950Y-93759838D01*
X103480031Y-93772538D01*
X103393512Y-93762021D01*
X103324456Y-93730469D01*
X103279212Y-93680661D01*
X103264131Y-93615375D01*
X103748318Y-93615375D01*
X103750700Y-93582038D01*
X103751493Y-93542350D01*
X103741968Y-93427433D01*
X103713393Y-93332448D01*
X103665768Y-93257394D01*
X103599799Y-93203155D01*
X103516190Y-93170611D01*
X103414943Y-93159763D01*
X103349062Y-93166113D01*
X103284768Y-93185163D01*
X103224840Y-93216714D01*
X103172056Y-93260569D01*
X103127606Y-93316727D01*
X103092681Y-93385188D01*
X103070059Y-93465754D01*
X103062518Y-93558225D01*
X102557693Y-93558225D01*
X102557693Y-93370900D01*
X102638656Y-93355819D01*
X102719618Y-93351850D01*
X102762481Y-93353438D01*
X102814868Y-93358994D01*
X102868050Y-93367725D01*
X102913293Y-93377250D01*
X102948218Y-93196275D01*
X102887100Y-93181194D01*
X102819631Y-93171669D01*
X102756925Y-93166113D01*
X102711681Y-93164525D01*
X102609089Y-93168891D01*
X102520387Y-93181988D01*
X102439623Y-93202229D01*
X102360843Y-93228025D01*
X102360843Y-93924938D01*
X102033603Y-93924938D01*
X102121131Y-93901125D01*
X102094143Y-93734438D01*
X102004450Y-93759838D01*
X101892531Y-93772538D01*
X101806012Y-93762021D01*
X101736956Y-93730469D01*
X101691712Y-93680661D01*
X101676631Y-93615375D01*
X102160818Y-93615375D01*
X102163200Y-93582038D01*
X102163993Y-93542350D01*
X102154468Y-93427433D01*
X102125893Y-93332448D01*
X102078268Y-93257394D01*
X102012299Y-93203155D01*
X101928690Y-93170611D01*
X101827443Y-93159763D01*
X101761562Y-93166113D01*
X101697268Y-93185163D01*
X101637340Y-93216714D01*
X101584556Y-93260569D01*
X101540106Y-93316727D01*
X101505181Y-93385188D01*
X101482559Y-93465754D01*
X101475018Y-93558225D01*
X101049568Y-93558225D01*
X101049568Y-93340738D01*
X101355956Y-93340738D01*
X101355956Y-93178813D01*
X101049568Y-93178813D01*
X101049568Y-93139125D01*
X101060681Y-93062132D01*
X101090050Y-93016888D01*
X101132912Y-92996250D01*
X101184506Y-92991488D01*
X101288487Y-93004982D01*
X101379768Y-93031175D01*
X101413106Y-92872425D01*
X101295631Y-92835913D01*
X101168631Y-92824800D01*
X101051156Y-92839882D01*
X100949556Y-92890682D01*
X100878912Y-92985932D01*
X100859267Y-93053202D01*
X100852718Y-93135950D01*
X100852718Y-93178813D01*
X100689206Y-93178813D01*
X100689206Y-93340738D01*
X100540887Y-93340738D01*
X100538393Y-93332448D01*
X100490768Y-93257394D01*
X100424799Y-93203155D01*
X100341190Y-93170611D01*
X100239943Y-93159763D01*
X100174062Y-93166113D01*
X100109768Y-93185163D01*
X100049840Y-93216714D01*
X99997056Y-93260569D01*
X99952606Y-93316727D01*
X99917681Y-93385188D01*
X99895059Y-93465754D01*
X99887518Y-93558225D01*
X99631778Y-93558225D01*
X99604943Y-93515363D01*
X99674396Y-93470516D01*
X99720831Y-93409000D01*
X99747025Y-93335182D01*
X99755756Y-93253425D01*
X99749207Y-93176233D01*
X99729562Y-93109757D01*
X99654156Y-93008950D01*
X99600181Y-92974422D01*
X99536681Y-92950213D01*
X99464450Y-92935925D01*
X99384281Y-92931163D01*
X99328718Y-92932750D01*
X99262043Y-92936719D01*
X99192987Y-92944657D01*
X99130281Y-92956563D01*
X99130281Y-93924938D01*
X97636700Y-93924938D01*
X97722367Y-93918389D01*
X97837262Y-93889219D01*
X97938068Y-93841396D01*
X98023000Y-93775713D01*
X98091064Y-93692171D01*
X98141268Y-93590769D01*
X98172225Y-93472302D01*
X98182543Y-93337563D01*
X98172842Y-93214973D01*
X98143738Y-93111785D01*
X98095231Y-93028000D01*
X98028379Y-92966264D01*
X97944242Y-92929223D01*
X97842818Y-92916875D01*
X97768603Y-92924614D01*
X97704706Y-92947832D01*
X97607075Y-93027207D01*
X97548337Y-93135157D01*
X97528493Y-93251838D01*
X97382009Y-93251838D01*
X97379092Y-93214973D01*
X97349988Y-93111785D01*
X97301481Y-93028000D01*
X97234629Y-92966264D01*
X97150492Y-92929223D01*
X97049068Y-92916875D01*
X96974853Y-92924614D01*
X96910956Y-92947832D01*
X96813325Y-93027207D01*
X96754587Y-93135157D01*
X96734743Y-93251838D01*
X96530984Y-93251838D01*
X96547418Y-93196275D01*
X96528368Y-93086738D01*
X96469631Y-92998632D01*
X96368825Y-92940688D01*
X96302348Y-92925210D01*
X96225156Y-92920050D01*
X96140820Y-92927393D01*
X96065612Y-92949419D01*
X95952106Y-93007363D01*
X96021956Y-93150238D01*
X96116412Y-93104994D01*
X96226743Y-93086738D01*
X96316437Y-93117694D01*
X96348981Y-93202625D01*
X96333900Y-93262950D01*
X96295006Y-93301050D01*
X96241031Y-93321688D01*
X96180706Y-93328038D01*
X96107681Y-93328038D01*
X96107681Y-93489963D01*
X96168006Y-93489963D01*
X96254921Y-93497702D01*
X96325168Y-93520919D01*
X96371603Y-93563583D01*
X96387081Y-93629663D01*
X96346600Y-93736025D01*
X96291235Y-93768172D01*
X96206106Y-93778888D01*
X96130898Y-93774522D01*
X96067200Y-93761425D01*
X95972743Y-93728088D01*
X95934643Y-93891600D01*
X95804468Y-93891600D01*
X95804468Y-93763013D01*
X95609206Y-93763013D01*
X95609206Y-92942275D01*
X95475856Y-92942275D01*
X95407593Y-93004188D01*
X95323456Y-93061338D01*
X95234556Y-93110550D01*
X95152006Y-93147063D01*
X94978087Y-93147063D01*
X94967062Y-93109757D01*
X94891656Y-93008950D01*
X94837681Y-92974422D01*
X94774181Y-92950213D01*
X94701950Y-92935925D01*
X94621781Y-92931163D01*
X94566218Y-92932750D01*
X94499543Y-92936719D01*
X94430487Y-92944657D01*
X94367781Y-92956563D01*
X94367781Y-93924938D01*
X93903597Y-93924938D01*
X93966937Y-93909857D01*
X94044526Y-93873939D01*
X94110606Y-93821750D01*
X94164382Y-93752496D01*
X94205062Y-93665382D01*
X94230660Y-93559218D01*
X94239193Y-93432813D01*
X94231454Y-93309186D01*
X94208237Y-93205007D01*
X94171129Y-93118885D01*
X94121718Y-93049432D01*
X94060004Y-92996449D01*
X93985987Y-92959738D01*
X93901651Y-92938307D01*
X93808981Y-92931163D01*
X93699443Y-92935925D01*
X93574031Y-92954975D01*
X93574031Y-93913825D01*
X93471405Y-93913825D01*
X93447825Y-93813527D01*
X93421313Y-93705355D01*
X93394485Y-93600421D01*
X93367338Y-93498726D01*
X93339875Y-93400269D01*
X93305297Y-93280859D01*
X93270620Y-93164724D01*
X93235844Y-93051863D01*
X93200968Y-92942275D01*
X92988243Y-92942275D01*
X92954608Y-93050970D01*
X92920378Y-93162739D01*
X92885552Y-93277585D01*
X92850131Y-93395507D01*
X92821619Y-93493138D01*
X92793235Y-93594897D01*
X92764977Y-93700783D01*
X92736847Y-93810797D01*
X92708843Y-93924938D01*
X92196213Y-93924938D01*
X92196213Y-92312170D01*
G37*
G36*
X100309793Y-93336769D02*
G01*
X100354243Y-93372488D01*
X100379643Y-93422494D01*
X100387581Y-93480438D01*
X100089131Y-93480438D01*
X100102625Y-93421700D01*
X100131200Y-93370900D01*
X100177237Y-93335975D01*
X100243118Y-93323275D01*
X100309793Y-93336769D01*
G37*
G36*
X103484793Y-93336769D02*
G01*
X103529243Y-93372488D01*
X103554643Y-93422494D01*
X103562581Y-93480438D01*
X103264131Y-93480438D01*
X103277625Y-93421700D01*
X103306200Y-93370900D01*
X103352237Y-93335975D01*
X103418118Y-93323275D01*
X103484793Y-93336769D01*
G37*
G36*
X105866043Y-93336769D02*
G01*
X105910493Y-93372488D01*
X105935893Y-93422494D01*
X105943831Y-93480438D01*
X105645381Y-93480438D01*
X105658875Y-93421700D01*
X105687450Y-93370900D01*
X105733487Y-93335975D01*
X105799368Y-93323275D01*
X105866043Y-93336769D01*
G37*
G36*
X97122887Y-93104200D02*
G01*
X97167337Y-93158175D01*
X97191150Y-93231994D01*
X97198293Y-93312163D01*
X97197500Y-93347882D01*
X97195118Y-93378838D01*
X97141143Y-93396300D01*
X97077643Y-93402650D01*
X97007000Y-93392729D01*
X96960168Y-93362963D01*
X96925243Y-93248663D01*
X96932387Y-93185163D01*
X96954612Y-93132775D01*
X96994300Y-93097057D01*
X97053831Y-93083563D01*
X97122887Y-93104200D01*
G37*
G36*
X102538620Y-95592595D02*
G01*
X102583977Y-95598069D01*
X102583977Y-95766985D01*
X102532364Y-95770895D01*
X102471366Y-95771677D01*
X102374396Y-95750563D01*
X102336859Y-95679399D01*
X102349371Y-95634042D01*
X102382998Y-95607453D01*
X102432265Y-95594159D01*
X102490135Y-95590249D01*
X102538620Y-95592595D01*
G37*
G36*
X94692028Y-93110154D02*
G01*
X94747193Y-93137538D01*
X94782912Y-93184369D01*
X94794818Y-93251838D01*
X94750368Y-93362169D01*
X94692028Y-93391339D01*
X94605906Y-93401063D01*
X94563043Y-93401063D01*
X94563043Y-93105788D01*
X94594793Y-93101819D01*
X94621781Y-93101025D01*
X94692028Y-93110154D01*
G37*
G36*
X101897293Y-93336769D02*
G01*
X101941743Y-93372488D01*
X101967143Y-93422494D01*
X101975081Y-93480438D01*
X101676631Y-93480438D01*
X101690125Y-93421700D01*
X101718700Y-93370900D01*
X101764737Y-93335975D01*
X101830618Y-93323275D01*
X101897293Y-93336769D01*
G37*
G36*
X99410541Y-95592595D02*
G01*
X99455898Y-95598069D01*
X99455898Y-95766985D01*
X99404285Y-95770895D01*
X99343287Y-95771677D01*
X99246317Y-95750563D01*
X99208780Y-95679399D01*
X99221292Y-95634042D01*
X99254919Y-95607453D01*
X99304186Y-95594159D01*
X99362056Y-95590249D01*
X99410541Y-95592595D01*
G37*
G36*
X99454528Y-93110154D02*
G01*
X99509693Y-93137538D01*
X99545412Y-93184369D01*
X99557318Y-93251838D01*
X99512868Y-93362169D01*
X99454528Y-93391339D01*
X99368406Y-93401063D01*
X99325543Y-93401063D01*
X99325543Y-93105788D01*
X99357293Y-93101819D01*
X99384281Y-93101025D01*
X99454528Y-93110154D01*
G37*
G36*
X101738027Y-95106374D02*
G01*
X101791791Y-95132767D01*
X101826395Y-95180275D01*
X101837930Y-95252416D01*
X101826200Y-95328468D01*
X101791009Y-95378322D01*
X101732748Y-95405888D01*
X101651809Y-95415076D01*
X101573607Y-95415076D01*
X101573607Y-95102269D01*
X101621311Y-95098358D01*
X101669014Y-95097576D01*
X101738027Y-95106374D01*
G37*
G36*
X93932806Y-93128807D02*
G01*
X93997893Y-93202625D01*
X94031231Y-93308988D01*
X94040756Y-93432813D01*
X94037779Y-93502861D01*
X94028850Y-93566957D01*
X93989162Y-93672525D01*
X93916137Y-93742375D01*
X93804218Y-93767775D01*
X93786756Y-93767775D01*
X93769293Y-93766188D01*
X93769293Y-93105788D01*
X93797868Y-93101819D01*
X93826443Y-93101025D01*
X93932806Y-93128807D01*
G37*
G36*
X93119212Y-93238344D02*
G01*
X93144612Y-93336769D01*
X93166043Y-93434400D01*
X93185093Y-93536000D01*
X92993006Y-93536000D01*
X93012850Y-93434400D01*
X93035075Y-93336769D01*
X93060475Y-93238344D01*
X93089843Y-93132775D01*
X93119212Y-93238344D01*
G37*
G36*
X97916637Y-93104200D02*
G01*
X97961087Y-93158175D01*
X97984900Y-93231994D01*
X97992043Y-93312163D01*
X97991250Y-93347882D01*
X97988868Y-93378838D01*
X97934893Y-93396300D01*
X97871393Y-93402650D01*
X97800750Y-93392729D01*
X97753918Y-93362963D01*
X97718993Y-93248663D01*
X97726137Y-93185163D01*
X97748362Y-93132775D01*
X97788050Y-93097057D01*
X97847581Y-93083563D01*
X97916637Y-93104200D01*
G37*
X126500000Y-89500000D02*
X117500000Y-91000000D01*
X134900000Y-102500000D02*
X126500000Y-102500000D01*
X112865000Y-99175000D02*
X114135000Y-99175000D01*
X112865000Y-92825000D02*
X114135000Y-92825000D01*
X134900000Y-89500000D02*
X126500000Y-89500000D01*
X110325000Y-96635000D02*
X110325000Y-95365000D01*
X126500000Y-102500000D02*
X117500000Y-101000000D01*
X100772936Y-115765000D02*
X101227064Y-115765000D01*
X100772936Y-117235000D02*
X101227064Y-117235000D01*
X102440000Y-110500000D02*
X102440000Y-108550000D01*
X107560000Y-110500000D02*
X107560000Y-107050000D01*
X102440000Y-110500000D02*
X102440000Y-112450000D01*
X107560000Y-110500000D02*
X107560000Y-112450000D01*
X108772936Y-103765000D02*
X109227064Y-103765000D01*
X108772936Y-105235000D02*
X109227064Y-105235000D01*
X112865000Y-116175000D02*
X114135000Y-116175000D01*
X134900000Y-106500000D02*
X126500000Y-106500000D01*
X110325000Y-113635000D02*
X110325000Y-112365000D01*
X126500000Y-106500000D02*
X117500000Y-108000000D01*
X134900000Y-119500000D02*
X126500000Y-119500000D01*
X112865000Y-109825000D02*
X114135000Y-109825000D01*
X126500000Y-119500000D02*
X117500000Y-118000000D01*
X89582331Y-113072281D02*
X90494499Y-113984448D01*
X91484448Y-112994499D02*
X90572281Y-112082331D01*
X90494499Y-113984448D02*
X91484448Y-112994499D01*
X90572150Y-112082544D02*
G75*
G03*
X89582331Y-113072281I-2572150J1582544D01*
G01*
X93400000Y-110500000D02*
G75*
G03*
X93400000Y-110500000I-5400000J0D01*
G01*
X104227064Y-105235000D02*
X103772936Y-105235000D01*
X104227064Y-103765000D02*
X103772936Y-103765000D01*
G36*
X115638113Y-104966328D02*
G01*
X115766700Y-104974663D01*
X115984188Y-105019113D01*
X116131825Y-105114363D01*
X116185800Y-105274700D01*
X116131825Y-105436625D01*
X115985775Y-105530288D01*
X115768288Y-105574738D01*
X115638509Y-105583072D01*
X115500000Y-105585850D01*
X115361887Y-105583072D01*
X115233300Y-105574738D01*
X115015812Y-105530288D01*
X114868175Y-105436625D01*
X114814200Y-105274700D01*
X114868175Y-105112775D01*
X115014225Y-105019113D01*
X115231712Y-104974663D01*
X115361491Y-104966328D01*
X115500000Y-104963550D01*
X115638113Y-104966328D01*
G37*
G36*
X117038155Y-100872695D02*
G01*
X117038155Y-108127305D01*
X113961845Y-108127305D01*
X113961845Y-107614675D01*
X114518925Y-107614675D01*
X114696725Y-107578163D01*
X114918975Y-107525775D01*
X115085310Y-107483794D01*
X115258347Y-107438286D01*
X115438087Y-107389250D01*
X115621356Y-107337392D01*
X115804976Y-107283417D01*
X115988950Y-107227325D01*
X116250888Y-107143981D01*
X116484250Y-107065400D01*
X116484250Y-106662175D01*
X116315093Y-106601497D01*
X116142056Y-106542231D01*
X115965138Y-106484375D01*
X115787338Y-106428813D01*
X115611654Y-106376425D01*
X115438087Y-106327213D01*
X115185278Y-106259744D01*
X114944375Y-106200213D01*
X114720537Y-106149016D01*
X114518925Y-106106550D01*
X114518925Y-106516125D01*
X114684025Y-106544700D01*
X114874525Y-106579625D01*
X115080503Y-106619313D01*
X115292037Y-106662175D01*
X115504763Y-106708213D01*
X115714313Y-106757425D01*
X115910766Y-106808225D01*
X116084200Y-106859025D01*
X115908384Y-106910222D01*
X115711138Y-106962213D01*
X115501588Y-107013013D01*
X115288862Y-107060638D01*
X115077725Y-107104691D01*
X114872937Y-107144775D01*
X114683628Y-107178113D01*
X114518925Y-107201925D01*
X114518925Y-107614675D01*
X113961845Y-107614675D01*
X113961845Y-105274700D01*
X114474475Y-105274700D01*
X114503226Y-105480722D01*
X114589481Y-105654289D01*
X114733237Y-105795400D01*
X114878196Y-105877355D01*
X115054309Y-105935894D01*
X115261577Y-105971017D01*
X115500000Y-105982725D01*
X115738423Y-105971315D01*
X115945691Y-105937084D01*
X116121804Y-105880034D01*
X116266763Y-105800163D01*
X116410519Y-105660286D01*
X116496774Y-105484074D01*
X116525525Y-105271525D01*
X116496774Y-105064092D01*
X116410519Y-104890525D01*
X116266763Y-104750825D01*
X116121804Y-104670259D01*
X115945691Y-104612713D01*
X115738423Y-104578184D01*
X115500000Y-104566675D01*
X115261577Y-104577986D01*
X115054309Y-104611919D01*
X114878196Y-104668473D01*
X114733237Y-104747650D01*
X114589481Y-104886644D01*
X114503226Y-105062328D01*
X114474475Y-105274700D01*
X113961845Y-105274700D01*
X113961845Y-104357125D01*
X114518925Y-104357125D01*
X115773050Y-104357125D01*
X115936563Y-104349187D01*
X116084200Y-104325375D01*
X116213581Y-104282512D01*
X116322325Y-104217425D01*
X116473138Y-104012637D01*
X116512428Y-103868572D01*
X116525525Y-103693550D01*
X116512428Y-103515750D01*
X116473138Y-103369700D01*
X116409241Y-103252225D01*
X116322325Y-103160150D01*
X116213581Y-103092681D01*
X116084200Y-103049025D01*
X115936563Y-103025212D01*
X115773050Y-103017275D01*
X114518925Y-103017275D01*
X114518925Y-103407800D01*
X115744475Y-103407800D01*
X115952438Y-103420500D01*
X116088963Y-103464950D01*
X116163575Y-103550675D01*
X116185800Y-103687200D01*
X116163575Y-103823725D01*
X116090550Y-103907862D01*
X115955613Y-103950725D01*
X115747650Y-103963425D01*
X114518925Y-103963425D01*
X114518925Y-104357125D01*
X113961845Y-104357125D01*
X113961845Y-101385325D01*
X114518925Y-101385325D01*
X114518925Y-102814075D01*
X114842775Y-102814075D01*
X114842775Y-102296550D01*
X116484250Y-102296550D01*
X116484250Y-101902850D01*
X114842775Y-101902850D01*
X114842775Y-101385325D01*
X114518925Y-101385325D01*
X113961845Y-101385325D01*
X113961845Y-100872695D01*
X117038155Y-100872695D01*
G37*
X89590000Y-92711252D02*
X89590000Y-91288748D01*
X91410000Y-92711252D02*
X91410000Y-91288748D01*
X85834990Y-112295543D02*
X86204457Y-112665010D01*
X84795543Y-113334990D02*
X85165010Y-113704457D01*
X101227064Y-119735000D02*
X100772936Y-119735000D01*
X101227064Y-118265000D02*
X100772936Y-118265000D01*
X100735000Y-108761252D02*
X100735000Y-108238748D01*
X99265000Y-108761252D02*
X99265000Y-108238748D01*
%LPC*%
G36*
G01*
X85000000Y-95850000D02*
X85000000Y-93150000D01*
G75*
G02*
X85900000Y-92250000I900000J0D01*
G01*
X85900000Y-92250000D01*
G75*
G02*
X86800000Y-93150000I0J-900000D01*
G01*
X86800000Y-95850000D01*
G75*
G02*
X85900000Y-96750000I-900000J0D01*
G01*
X85900000Y-96750000D01*
G75*
G02*
X85000000Y-95850000I0J900000D01*
G01*
G37*
G36*
G01*
X79100000Y-95350000D02*
X79100000Y-93650000D01*
G75*
G02*
X80000000Y-92750000I900000J0D01*
G01*
X80000000Y-92750000D01*
G75*
G02*
X80900000Y-93650000I0J-900000D01*
G01*
X80900000Y-95350000D01*
G75*
G02*
X80000000Y-96250000I-900000J0D01*
G01*
X80000000Y-96250000D01*
G75*
G02*
X79100000Y-95350000I0J900000D01*
G01*
G37*
G36*
G01*
X81350000Y-99200000D02*
X81350000Y-99200000D01*
G75*
G02*
X82250000Y-98300000I900000J0D01*
G01*
X83950000Y-98300000D01*
G75*
G02*
X84850000Y-99200000I0J-900000D01*
G01*
X84850000Y-99200000D01*
G75*
G02*
X83950000Y-100100000I-900000J0D01*
G01*
X82250000Y-100100000D01*
G75*
G02*
X81350000Y-99200000I0J900000D01*
G01*
G37*
G36*
G01*
X100450000Y-114100000D02*
X99550000Y-114100000D01*
G75*
G02*
X99300000Y-113850000I0J250000D01*
G01*
X99300000Y-113150000D01*
G75*
G02*
X99550000Y-112900000I250000J0D01*
G01*
X100450000Y-112900000D01*
G75*
G02*
X100700000Y-113150000I0J-250000D01*
G01*
X100700000Y-113850000D01*
G75*
G02*
X100450000Y-114100000I-250000J0D01*
G01*
G37*
G36*
G01*
X100450000Y-112100000D02*
X99550000Y-112100000D01*
G75*
G02*
X99300000Y-111850000I0J250000D01*
G01*
X99300000Y-111150000D01*
G75*
G02*
X99550000Y-110900000I250000J0D01*
G01*
X100450000Y-110900000D01*
G75*
G02*
X100700000Y-111150000I0J-250000D01*
G01*
X100700000Y-111850000D01*
G75*
G02*
X100450000Y-112100000I-250000J0D01*
G01*
G37*
G36*
G01*
X104375000Y-116975000D02*
X104375000Y-116025000D01*
G75*
G02*
X104625000Y-115775000I250000J0D01*
G01*
X105300000Y-115775000D01*
G75*
G02*
X105550000Y-116025000I0J-250000D01*
G01*
X105550000Y-116975000D01*
G75*
G02*
X105300000Y-117225000I-250000J0D01*
G01*
X104625000Y-117225000D01*
G75*
G02*
X104375000Y-116975000I0J250000D01*
G01*
G37*
G36*
G01*
X106450000Y-116975000D02*
X106450000Y-116025000D01*
G75*
G02*
X106700000Y-115775000I250000J0D01*
G01*
X107375000Y-115775000D01*
G75*
G02*
X107625000Y-116025000I0J-250000D01*
G01*
X107625000Y-116975000D01*
G75*
G02*
X107375000Y-117225000I-250000J0D01*
G01*
X106700000Y-117225000D01*
G75*
G02*
X106450000Y-116975000I0J250000D01*
G01*
G37*
D12*
X110960000Y-93460000D03*
X116040000Y-93460000D03*
X116040000Y-98540000D03*
X110960000Y-98540000D03*
G36*
G01*
X99400000Y-116950000D02*
X99400000Y-116050000D01*
G75*
G02*
X99650000Y-115800000I250000J0D01*
G01*
X100350000Y-115800000D01*
G75*
G02*
X100600000Y-116050000I0J-250000D01*
G01*
X100600000Y-116950000D01*
G75*
G02*
X100350000Y-117200000I-250000J0D01*
G01*
X99650000Y-117200000D01*
G75*
G02*
X99400000Y-116950000I0J250000D01*
G01*
G37*
G36*
G01*
X101400000Y-116950000D02*
X101400000Y-116050000D01*
G75*
G02*
X101650000Y-115800000I250000J0D01*
G01*
X102350000Y-115800000D01*
G75*
G02*
X102600000Y-116050000I0J-250000D01*
G01*
X102600000Y-116950000D01*
G75*
G02*
X102350000Y-117200000I-250000J0D01*
G01*
X101650000Y-117200000D01*
G75*
G02*
X101400000Y-116950000I0J250000D01*
G01*
G37*
G36*
G01*
X106755000Y-107050000D02*
X107055000Y-107050000D01*
G75*
G02*
X107205000Y-107200000I0J-150000D01*
G01*
X107205000Y-108650000D01*
G75*
G02*
X107055000Y-108800000I-150000J0D01*
G01*
X106755000Y-108800000D01*
G75*
G02*
X106605000Y-108650000I0J150000D01*
G01*
X106605000Y-107200000D01*
G75*
G02*
X106755000Y-107050000I150000J0D01*
G01*
G37*
G36*
G01*
X105485000Y-107050000D02*
X105785000Y-107050000D01*
G75*
G02*
X105935000Y-107200000I0J-150000D01*
G01*
X105935000Y-108650000D01*
G75*
G02*
X105785000Y-108800000I-150000J0D01*
G01*
X105485000Y-108800000D01*
G75*
G02*
X105335000Y-108650000I0J150000D01*
G01*
X105335000Y-107200000D01*
G75*
G02*
X105485000Y-107050000I150000J0D01*
G01*
G37*
G36*
G01*
X104215000Y-107050000D02*
X104515000Y-107050000D01*
G75*
G02*
X104665000Y-107200000I0J-150000D01*
G01*
X104665000Y-108650000D01*
G75*
G02*
X104515000Y-108800000I-150000J0D01*
G01*
X104215000Y-108800000D01*
G75*
G02*
X104065000Y-108650000I0J150000D01*
G01*
X104065000Y-107200000D01*
G75*
G02*
X104215000Y-107050000I150000J0D01*
G01*
G37*
G36*
G01*
X102945000Y-107050000D02*
X103245000Y-107050000D01*
G75*
G02*
X103395000Y-107200000I0J-150000D01*
G01*
X103395000Y-108650000D01*
G75*
G02*
X103245000Y-108800000I-150000J0D01*
G01*
X102945000Y-108800000D01*
G75*
G02*
X102795000Y-108650000I0J150000D01*
G01*
X102795000Y-107200000D01*
G75*
G02*
X102945000Y-107050000I150000J0D01*
G01*
G37*
G36*
G01*
X102945000Y-112200000D02*
X103245000Y-112200000D01*
G75*
G02*
X103395000Y-112350000I0J-150000D01*
G01*
X103395000Y-113800000D01*
G75*
G02*
X103245000Y-113950000I-150000J0D01*
G01*
X102945000Y-113950000D01*
G75*
G02*
X102795000Y-113800000I0J150000D01*
G01*
X102795000Y-112350000D01*
G75*
G02*
X102945000Y-112200000I150000J0D01*
G01*
G37*
G36*
G01*
X104215000Y-112200000D02*
X104515000Y-112200000D01*
G75*
G02*
X104665000Y-112350000I0J-150000D01*
G01*
X104665000Y-113800000D01*
G75*
G02*
X104515000Y-113950000I-150000J0D01*
G01*
X104215000Y-113950000D01*
G75*
G02*
X104065000Y-113800000I0J150000D01*
G01*
X104065000Y-112350000D01*
G75*
G02*
X104215000Y-112200000I150000J0D01*
G01*
G37*
G36*
G01*
X105485000Y-112200000D02*
X105785000Y-112200000D01*
G75*
G02*
X105935000Y-112350000I0J-150000D01*
G01*
X105935000Y-113800000D01*
G75*
G02*
X105785000Y-113950000I-150000J0D01*
G01*
X105485000Y-113950000D01*
G75*
G02*
X105335000Y-113800000I0J150000D01*
G01*
X105335000Y-112350000D01*
G75*
G02*
X105485000Y-112200000I150000J0D01*
G01*
G37*
G36*
G01*
X106755000Y-112200000D02*
X107055000Y-112200000D01*
G75*
G02*
X107205000Y-112350000I0J-150000D01*
G01*
X107205000Y-113800000D01*
G75*
G02*
X107055000Y-113950000I-150000J0D01*
G01*
X106755000Y-113950000D01*
G75*
G02*
X106605000Y-113800000I0J150000D01*
G01*
X106605000Y-112350000D01*
G75*
G02*
X106755000Y-112200000I150000J0D01*
G01*
G37*
G36*
G01*
X107400000Y-104950000D02*
X107400000Y-104050000D01*
G75*
G02*
X107650000Y-103800000I250000J0D01*
G01*
X108350000Y-103800000D01*
G75*
G02*
X108600000Y-104050000I0J-250000D01*
G01*
X108600000Y-104950000D01*
G75*
G02*
X108350000Y-105200000I-250000J0D01*
G01*
X107650000Y-105200000D01*
G75*
G02*
X107400000Y-104950000I0J250000D01*
G01*
G37*
G36*
G01*
X109400000Y-104950000D02*
X109400000Y-104050000D01*
G75*
G02*
X109650000Y-103800000I250000J0D01*
G01*
X110350000Y-103800000D01*
G75*
G02*
X110600000Y-104050000I0J-250000D01*
G01*
X110600000Y-104950000D01*
G75*
G02*
X110350000Y-105200000I-250000J0D01*
G01*
X109650000Y-105200000D01*
G75*
G02*
X109400000Y-104950000I0J250000D01*
G01*
G37*
X110960000Y-110460000D03*
X116040000Y-110460000D03*
X116040000Y-115540000D03*
X110960000Y-115540000D03*
D13*
X89270000Y-110500000D03*
D14*
X88000000Y-109230000D03*
X86730000Y-110500000D03*
X88000000Y-111770000D03*
G36*
G01*
X105600000Y-104050000D02*
X105600000Y-104950000D01*
G75*
G02*
X105350000Y-105200000I-250000J0D01*
G01*
X104650000Y-105200000D01*
G75*
G02*
X104400000Y-104950000I0J250000D01*
G01*
X104400000Y-104050000D01*
G75*
G02*
X104650000Y-103800000I250000J0D01*
G01*
X105350000Y-103800000D01*
G75*
G02*
X105600000Y-104050000I0J-250000D01*
G01*
G37*
G36*
G01*
X103600000Y-104050000D02*
X103600000Y-104950000D01*
G75*
G02*
X103350000Y-105200000I-250000J0D01*
G01*
X102650000Y-105200000D01*
G75*
G02*
X102400000Y-104950000I0J250000D01*
G01*
X102400000Y-104050000D01*
G75*
G02*
X102650000Y-103800000I250000J0D01*
G01*
X103350000Y-103800000D01*
G75*
G02*
X103600000Y-104050000I0J-250000D01*
G01*
G37*
G36*
G01*
X91150000Y-94225000D02*
X89850000Y-94225000D01*
G75*
G02*
X89600000Y-93975000I0J250000D01*
G01*
X89600000Y-93150000D01*
G75*
G02*
X89850000Y-92900000I250000J0D01*
G01*
X91150000Y-92900000D01*
G75*
G02*
X91400000Y-93150000I0J-250000D01*
G01*
X91400000Y-93975000D01*
G75*
G02*
X91150000Y-94225000I-250000J0D01*
G01*
G37*
G36*
G01*
X91150000Y-91100000D02*
X89850000Y-91100000D01*
G75*
G02*
X89600000Y-90850000I0J250000D01*
G01*
X89600000Y-90025000D01*
G75*
G02*
X89850000Y-89775000I250000J0D01*
G01*
X91150000Y-89775000D01*
G75*
G02*
X91400000Y-90025000I0J-250000D01*
G01*
X91400000Y-90850000D01*
G75*
G02*
X91150000Y-91100000I-250000J0D01*
G01*
G37*
G36*
G01*
X84015076Y-112186827D02*
X84686827Y-111515076D01*
G75*
G02*
X85040381Y-111515076I176777J-176777D01*
G01*
X85517678Y-111992373D01*
G75*
G02*
X85517678Y-112345927I-176777J-176777D01*
G01*
X84845927Y-113017678D01*
G75*
G02*
X84492373Y-113017678I-176777J176777D01*
G01*
X84015076Y-112540381D01*
G75*
G02*
X84015076Y-112186827I176777J176777D01*
G01*
G37*
G36*
G01*
X85482322Y-113654073D02*
X86154073Y-112982322D01*
G75*
G02*
X86507627Y-112982322I176777J-176777D01*
G01*
X86984924Y-113459619D01*
G75*
G02*
X86984924Y-113813173I-176777J-176777D01*
G01*
X86313173Y-114484924D01*
G75*
G02*
X85959619Y-114484924I-176777J176777D01*
G01*
X85482322Y-114007627D01*
G75*
G02*
X85482322Y-113654073I176777J176777D01*
G01*
G37*
G36*
G01*
X102600000Y-118550000D02*
X102600000Y-119450000D01*
G75*
G02*
X102350000Y-119700000I-250000J0D01*
G01*
X101650000Y-119700000D01*
G75*
G02*
X101400000Y-119450000I0J250000D01*
G01*
X101400000Y-118550000D01*
G75*
G02*
X101650000Y-118300000I250000J0D01*
G01*
X102350000Y-118300000D01*
G75*
G02*
X102600000Y-118550000I0J-250000D01*
G01*
G37*
G36*
G01*
X100600000Y-118550000D02*
X100600000Y-119450000D01*
G75*
G02*
X100350000Y-119700000I-250000J0D01*
G01*
X99650000Y-119700000D01*
G75*
G02*
X99400000Y-119450000I0J250000D01*
G01*
X99400000Y-118550000D01*
G75*
G02*
X99650000Y-118300000I250000J0D01*
G01*
X100350000Y-118300000D01*
G75*
G02*
X100600000Y-118550000I0J-250000D01*
G01*
G37*
G36*
G01*
X100475000Y-110125000D02*
X99525000Y-110125000D01*
G75*
G02*
X99275000Y-109875000I0J250000D01*
G01*
X99275000Y-109200000D01*
G75*
G02*
X99525000Y-108950000I250000J0D01*
G01*
X100475000Y-108950000D01*
G75*
G02*
X100725000Y-109200000I0J-250000D01*
G01*
X100725000Y-109875000D01*
G75*
G02*
X100475000Y-110125000I-250000J0D01*
G01*
G37*
G36*
G01*
X100475000Y-108050000D02*
X99525000Y-108050000D01*
G75*
G02*
X99275000Y-107800000I0J250000D01*
G01*
X99275000Y-107125000D01*
G75*
G02*
X99525000Y-106875000I250000J0D01*
G01*
X100475000Y-106875000D01*
G75*
G02*
X100725000Y-107125000I0J-250000D01*
G01*
X100725000Y-107800000D01*
G75*
G02*
X100475000Y-108050000I-250000J0D01*
G01*
G37*
M02*
