M48
; DRILL file {KiCad 6.0.0-d3dd2cf0fa~116~ubuntu21.10.1} date Thu Feb  3 21:59:43 2022
; FORMAT={-:-/ absolute / inch / decimal}
; #@! TF.CreationDate,2022-02-03T21:59:43+00:00
; #@! TF.GenerationSoftware,Kicad,Pcbnew,6.0.0-d3dd2cf0fa~116~ubuntu21.10.1
; #@! TF.FileFunction,Plated,1,2,PTH
FMAT,2
INCH
; #@! TA.AperFunction,Plated,PTH,ViaDrill
T1C0.0157
; #@! TA.AperFunction,Plated,PTH,ComponentDrill
T2C0.0276
; #@! TA.AperFunction,Plated,PTH,ComponentDrill
T3C0.0315
; #@! TA.AperFunction,Plated,PTH,ComponentDrill
T4C0.0630
%
G90
G05
T1
X3.3465Y-4.3307
X3.4843Y-3.563
X3.8976Y-4.0157
X4.0354Y-4.311
X4.1732Y-4.3898
X4.2126Y-4.6457
T2
X3.4146Y-4.3504
X3.4646Y-4.3004
X3.4646Y-4.4004
X3.5146Y-4.3504
T4
X4.3685Y-3.6795
X4.3685Y-3.8795
X4.3685Y-4.3488
X4.3685Y-4.5488
X4.5685Y-3.6795
X4.5685Y-3.8795
X4.5685Y-4.3488
X4.5685Y-4.5488
T3
G00X3.1496Y-3.687
M15
G01X3.1496Y-3.7539
M16
G05
G00X3.2382Y-3.9055
M15
G01X3.3051Y-3.9055
M16
G05
G00X3.3819Y-3.6673
M15
G01X3.3819Y-3.7736
M16
G05
T0
M30
